<svg width="32" height="32" viewBox="0 0 32 32" fill="none" xmlns="http://www.w3.org/2000/svg">
<path d="M5.33301 10.667H26.6663M5.33301 10.667V22.4003C5.33301 23.8937 5.33301 24.6403 5.62367 25.211C5.87933 25.7127 6.28726 26.1207 6.78901 26.3763C7.35834 26.667 8.10501 26.667 9.59567 26.667H22.4037C23.8943 26.667 24.6397 26.667 25.209 26.3763C25.7117 26.1203 26.1197 25.7123 26.3757 25.211C26.6663 24.6403 26.6663 23.8963 26.6663 22.4057V10.667M5.33301 10.667V9.60033C5.33301 8.10699 5.33301 7.36033 5.62367 6.78966C5.87967 6.28699 6.28634 5.88033 6.78901 5.62433C7.35967 5.33366 8.10634 5.33366 9.59967 5.33366H10.6663M26.6663 10.667V9.59633C26.6663 8.10566 26.6663 7.35899 26.3757 6.78966C26.1197 6.28771 25.7112 5.87976 25.209 5.62433C24.6397 5.33366 23.893 5.33366 22.3997 5.33366H21.333M10.6663 5.33366H21.333M10.6663 5.33366V2.66699M21.333 5.33366V2.66699M19.333 18.667H12.6663" stroke="#DF0C4B" stroke-width="2" stroke-linecap="round" stroke-linejoin="round"/>
</svg>
