<svg width="33" height="33" viewBox="0 0 33 33" fill="none" xmlns="http://www.w3.org/2000/svg">
<path fill-rule="evenodd" clip-rule="evenodd" d="M0.87868 27.0688C-0.292893 28.2404 -0.292893 30.1399 0.87868 31.3115C2.05025 32.483 3.94975 32.483 5.12132 31.3115L16.0951 20.3377L27.0689 31.3115C28.2404 32.483 30.1399 32.483 31.3115 31.3115C32.4831 30.1399 32.4831 28.2404 31.3115 27.0688L20.3377 16.095L31.3114 5.12132C32.483 3.94975 32.483 2.05025 31.3114 0.87868C30.1399 -0.292893 28.2404 -0.292894 27.0688 0.87868L16.0951 11.8524L5.12137 0.87868C3.9498 -0.292894 2.0503 -0.292893 0.878732 0.87868C-0.292841 2.05025 -0.292842 3.94975 0.878732 5.12132L11.8525 16.095L0.87868 27.0688Z" fill="#A3A3A3"/>
</svg>
