<svg width="24" height="25" viewBox="0 0 24 25" fill="none" xmlns="http://www.w3.org/2000/svg">
<path d="M15 20.9814H9M4 14.7814V9.18145C4 8.06145 4 7.50145 4.218 7.07345C4.41 6.69645 4.715 6.39145 5.092 6.19945C5.52 5.98145 6.08 5.98145 7.2 5.98145H16.8C17.92 5.98145 18.48 5.98145 18.907 6.19945C19.284 6.39145 19.59 6.69645 19.782 7.07345C20 7.50045 20 8.06044 20 9.17844V14.7844C20 15.9024 20 16.4614 19.782 16.8884C19.5902 17.2653 19.2838 17.5716 18.907 17.7634C18.48 17.9814 17.921 17.9814 16.803 17.9814H7.197C6.079 17.9814 5.519 17.9814 5.092 17.7634C4.71554 17.5714 4.40957 17.2651 4.218 16.8884C4 16.4614 4 15.9014 4 14.7814ZM14.5 11.9814L10 8.98145V14.9814L14.5 11.9814Z" stroke="currentColor" stroke-width="2" stroke-linecap="round" stroke-linejoin="round"/>
</svg>
