<svg width="196" height="24" viewBox="0 0 196 24" fill="none" xmlns="http://www.w3.org/2000/svg">
<path d="M6.44909 19.0901C4.91875 19.0901 3.70392 18.8992 2.80309 18.5174C1.90226 18.1356 1.23921 17.611 0.813948 16.9422C0.387159 16.2733 0.117367 15.5383 0 14.7372L3.45699 14.0217C3.57284 14.5192 3.75727 14.9431 4.00877 15.2963C4.26027 15.6495 4.59408 15.9171 5.01173 16.0974C5.42785 16.2793 5.93542 16.3695 6.53597 16.3695C7.21427 16.3695 7.72641 16.2553 8.07547 16.0253C8.42452 15.7953 8.59828 15.4526 8.59828 14.9942C8.59828 14.7266 8.52055 14.4877 8.3666 14.2787C8.21112 14.0683 7.90627 13.8774 7.45205 13.7061C6.9963 13.5347 6.34392 13.3814 5.49187 13.2476C4.23284 12.9801 3.23598 12.6509 2.49977 12.2586C1.76355 11.8678 1.23159 11.3988 0.902355 10.8547C0.573117 10.3106 0.408498 9.65678 0.408498 8.89322C0.408498 7.59457 0.887112 6.57849 1.84586 5.84349C2.80462 5.10849 4.24198 4.74023 6.15949 4.74023C7.49625 4.74023 8.5556 4.90257 9.34059 5.22723C10.1241 5.55189 10.7155 6.01484 11.1118 6.61607C11.5081 7.2173 11.8038 7.91923 11.9974 8.72187L8.54036 9.46739C8.3666 8.74141 8.09528 8.21684 7.72794 7.89217C7.35907 7.56751 6.80729 7.40518 6.0726 7.40518C5.41413 7.40518 4.9157 7.5149 4.57732 7.73435C4.23893 7.9538 4.06974 8.27396 4.06974 8.69331C4.06974 8.94132 4.14291 9.18031 4.28771 9.40877C4.43251 9.63724 4.71907 9.83414 5.14434 9.99647C5.5696 10.1588 6.20979 10.3256 7.06184 10.497C8.45653 10.7645 9.5357 11.1087 10.3009 11.5281C11.066 11.949 11.5934 12.4299 11.8846 12.9741C12.1757 13.5182 12.3205 14.1434 12.3205 14.8499C12.3205 15.7096 12.1223 16.4642 11.7245 17.112C11.3267 17.7613 10.6926 18.2528 9.82225 18.5865C8.95038 18.9202 7.82701 19.0871 6.45367 19.0871L6.44909 19.0901Z" fill="currentColor"/>
<path d="M18.0683 5.14155V22.9575H14.2349V5.14155H18.0683ZM17.5745 15.1099V14.0217H18.1842L18.4448 15.1099H17.573H17.5745ZM17.6614 9.86721V8.60764H18.4448L18.2421 9.86721H17.6614ZM27.6239 11.9009C27.6239 14.2111 27.1971 15.9922 26.3465 17.2428C25.4945 18.4933 24.3132 19.1096 22.8027 19.0901C22.0863 19.0901 21.4522 18.9608 20.9004 18.7038C20.3486 18.4452 19.87 18.0695 19.463 17.572C19.0561 17.0759 18.7177 16.4792 18.4464 15.7818C18.175 15.0844 17.9906 14.3073 17.8946 13.4475L18.0683 12.4164C18.0683 13.0657 18.1888 13.6384 18.4311 14.1344C18.6735 14.6304 19.0119 15.0227 19.4478 15.3083C19.8837 15.5954 20.402 15.7382 21.0025 15.7382C21.9902 15.7382 22.7158 15.4181 23.1807 14.7792C23.6456 14.1404 23.8773 13.189 23.8773 11.9294C23.8773 10.6699 23.6456 9.75298 23.1807 9.12319C22.7158 8.4934 21.9902 8.17776 21.0025 8.17776C20.402 8.17776 19.8792 8.31153 19.4341 8.57908C18.989 8.84663 18.6491 9.22841 18.4174 9.72442C18.1857 10.2204 18.0683 10.8126 18.0683 11.4995L17.9235 10.3256C18.0775 9.16077 18.3641 8.15822 18.7802 7.318C19.1963 6.47778 19.7389 5.83898 20.4065 5.39858C21.0742 4.95968 21.8835 4.74023 22.8316 4.74023C24.3604 4.74023 25.5433 5.35649 26.3755 6.58751C27.2077 7.81852 27.6239 9.59065 27.6239 11.9009Z" fill="currentColor"/>
<path d="M35.8732 19.0622C34.4983 19.0622 33.2881 18.8052 32.2425 18.2882C31.1968 17.7726 30.3783 17.0045 29.7884 15.9824C29.197 14.9619 28.9028 13.6873 28.9028 12.1586C28.9028 10.63 29.1833 9.26071 29.7457 8.16347C30.3067 7.06622 31.1054 6.22601 32.1419 5.64282C33.1768 5.06113 34.4404 4.76953 35.9327 4.76953C37.3456 4.76953 38.5178 5.02656 39.4476 5.54361C40.3774 6.05917 41.0648 6.78064 41.5099 7.70653C41.955 8.63243 42.1775 9.71614 42.1775 10.9577C42.1775 11.2628 42.1821 11.5634 42.1927 11.8595C42.2019 12.1556 42.1775 12.4758 42.1196 12.8185H31.6343V10.7848H39.5634L38.6626 11.5003C38.7586 10.2212 38.565 9.26221 38.0819 8.6219C37.5971 7.9831 36.8518 7.66294 35.8458 7.66294C34.7803 7.66294 33.9862 7.99212 33.4634 8.65197C32.9406 9.31031 32.6799 10.394 32.6799 11.9031C32.6799 13.298 32.9512 14.3231 33.4923 14.9829C34.035 15.6412 34.8474 15.9704 35.9327 15.9704C36.5515 15.9704 37.0515 15.8802 37.4279 15.6984C37.806 15.5165 38.1001 15.2835 38.3135 14.9964C38.5269 14.7093 38.6916 14.3862 38.8074 14.0224L42.0601 14.8822C41.8467 15.6653 41.4977 16.3808 41.0145 17.0301C40.5298 17.6794 39.8774 18.1814 39.0543 18.5332C38.2312 18.8864 37.1704 19.0637 35.8732 19.0637V19.0622Z" fill="currentColor"/>
<path d="M47.5505 18.9765C46.7761 18.9765 46.0735 18.8383 45.4439 18.5617C44.8144 18.2851 44.3206 17.8598 43.9624 17.2871C43.6042 16.7144 43.4243 15.9794 43.4243 15.0821C43.4243 13.8796 43.8206 12.8966 44.6148 12.1315C45.4089 11.368 46.7152 10.9862 48.5366 10.9862H52.6033L52.6613 12.9913H49.2332C48.5549 12.9913 48.0275 13.1206 47.6495 13.3776C47.2715 13.6346 47.0825 13.9939 47.0825 14.4523C47.0825 14.7394 47.1557 15.0069 47.3005 15.2549C47.4453 15.5029 47.6724 15.6983 47.9833 15.8426C48.2928 15.9854 48.6906 16.0576 49.1738 16.0576C49.7743 16.0576 50.2972 15.9478 50.7422 15.7284C51.1873 15.509 51.5364 15.2038 51.7879 14.8115C52.0394 14.4207 52.1659 13.9863 52.1659 13.5084V10.128C52.1659 9.38393 51.9967 8.81577 51.6583 8.42347C51.3199 8.03267 50.7529 7.83577 49.9588 7.83577C49.3003 7.83577 48.7683 7.9981 48.3614 8.32277C47.9544 8.64743 47.6937 9.16298 47.5764 9.86943L43.9456 9.1239C44.1011 8.30323 44.4151 7.56371 44.8891 6.90387C45.3632 6.24552 46.0369 5.73448 46.9072 5.37224C47.7791 5.01 48.8537 4.82812 50.131 4.82812C51.5257 4.82812 52.6536 5.02352 53.5148 5.41583C54.376 5.80813 55.0056 6.40485 55.4034 7.20598C55.7997 8.00862 55.9994 8.99163 55.9994 10.1565V18.6925H52.3396V14.3967L52.8045 15.4849H51.8168L52.3686 13.7955C52.2528 14.8656 51.9906 15.7855 51.5851 16.5596C51.1782 17.3322 50.6462 17.9304 49.9877 18.3498C49.3293 18.7691 48.5153 18.9795 47.5474 18.9795L47.5505 18.9765Z" fill="currentColor"/>
<path d="M62.4209 0.501953V18.6906H58.5874V0.501953H62.4209ZM62.4209 11.7299L67.1552 5.14193H71.5405V5.39896L65.2087 13.2179H60.2702V10.4688H65.3246L71.8316 18.4321V18.6891H67.4174L62.2182 11.757L62.4209 11.7284V11.7299Z" fill="currentColor"/>
<path d="M82.4039 17.4298L84.4952 18.6894L82.0549 18.7751L76.7688 5.1407H80.9513L82.4329 10.1249C82.5884 10.6976 82.7576 11.3138 82.9405 11.9722C83.1249 12.6305 83.3185 13.2949 83.5212 13.9622C83.7239 14.6311 83.9129 15.2849 84.0882 15.9237C84.262 16.564 84.4083 17.1608 84.5242 17.7139L82.8978 14.9933H85.1339L83.5365 17.6853C83.7498 16.8256 83.9724 15.9628 84.2041 15.0925C84.4358 14.2238 84.6736 13.37 84.9159 12.5283C85.1583 11.6881 85.3656 10.905 85.5408 10.179L86.9066 5.1377H91.0601L85.5698 18.7149C85.1247 19.8227 84.6156 20.7245 84.0456 21.422C83.474 22.1194 82.7865 22.6395 81.9832 22.9837C81.18 23.3279 80.1968 23.4992 79.0354 23.4992C78.5903 23.4992 78.2031 23.4797 77.8739 23.4421C77.5446 23.403 77.2063 23.3564 76.8572 23.2993L77.38 20.0918C77.6513 20.1489 77.9364 20.2015 78.2367 20.2496C78.5369 20.2977 78.8326 20.3217 79.1222 20.3217C79.7228 20.3217 80.2121 20.2451 80.5886 20.0933C80.9666 19.9399 81.2897 19.6634 81.561 19.2621C81.8324 18.8607 82.1128 18.2505 82.4039 17.4283V17.4298Z" fill="currentColor"/>
<path d="M98.1189 19.0901C96.6282 19.0901 95.3539 18.7985 94.2991 18.2168C93.2428 17.6351 92.4304 16.8039 91.8588 15.7247C91.2872 14.6455 91.0022 13.3709 91.0022 11.9009C91.0022 10.4309 91.2933 9.10816 91.8741 8.04849C92.4548 6.98883 93.2779 6.17266 94.3433 5.59999C95.4088 5.02732 96.6678 4.74023 98.1189 4.74023C99.57 4.74023 100.795 5.02732 101.852 5.59999C102.907 6.17266 103.725 6.98883 104.306 8.04849C104.887 9.10816 105.178 10.3933 105.178 11.9009C105.178 14.1344 104.548 15.8915 103.289 17.1706C102.03 18.4497 100.306 19.0901 98.1189 19.0901ZM98.09 8.00641C96.9864 8.00641 96.1679 8.35061 95.6359 9.03752C95.1024 9.72442 94.8372 10.6699 94.8372 11.8738C94.8372 12.6945 94.953 13.4024 95.1863 13.9931C95.4179 14.5854 95.7716 15.0348 96.2471 15.3399C96.7212 15.645 97.337 15.7983 98.0915 15.7983C99.195 15.7983 100.009 15.4541 100.532 14.7672C101.055 14.0803 101.315 13.1153 101.315 11.8738C101.315 11.0712 101.199 10.3798 100.966 9.79657C100.735 9.21488 100.381 8.76997 99.9053 8.46485C99.4313 8.15972 98.8262 8.00641 98.09 8.00641Z" fill="currentColor"/>
<path d="M116.36 15.0514H115.256L115.953 13.7617C115.797 14.9461 115.492 15.9337 115.038 16.7258C114.582 17.5179 114.017 18.1101 113.338 18.5024C112.66 18.8932 111.906 19.0901 111.073 19.0901C110.163 19.0901 109.407 18.8902 108.808 18.4889C108.208 18.0876 107.758 17.5299 107.458 16.813C107.158 16.0975 107.008 15.2513 107.008 14.2773V5.1416H110.842V13.2477C110.842 13.7061 110.924 14.1209 111.089 14.4937C111.253 14.8665 111.496 15.1521 111.814 15.3535C112.134 15.5534 112.544 15.6541 113.049 15.6541C113.63 15.6541 114.128 15.5293 114.544 15.2813C114.96 15.0333 115.285 14.6996 115.517 14.2788C115.748 13.8594 115.866 13.3619 115.866 12.7892V5.1416H119.699V18.6888H115.953V13.8775L116.36 15.0514Z" fill="currentColor"/>
<path d="M125.653 9.55309L126.496 9.58165L126.031 10.9284C126.205 9.66883 126.423 8.65576 126.685 7.8922C126.945 7.12864 127.241 6.54094 127.57 6.1306C127.9 5.72026 128.272 5.43317 128.689 5.27084C129.105 5.10851 129.566 5.02734 130.069 5.02734H130.562V9.35168H129.604C128.732 9.35168 128.044 9.45239 127.541 9.65229C127.038 9.8522 126.68 10.1784 126.467 10.6263C126.253 11.0757 126.147 11.701 126.147 12.5021V18.6888H122.313V5.14158H126.002V10.984L125.653 9.55159V9.55309Z" fill="currentColor"/>
<path d="M140.699 8.77944H141.802L141.019 10.2119C141.212 8.97033 141.537 7.94974 141.991 7.1471C142.446 6.34446 143.008 5.74323 143.676 5.34342C144.343 4.9436 145.113 4.74219 145.985 4.74219C146.857 4.74219 147.616 4.9421 148.207 5.34342C148.797 5.74474 149.233 6.30238 149.515 7.01934C149.795 7.7348 149.936 8.58103 149.936 9.55352L150.052 10.4133V18.6907H146.189V10.5846C146.189 10.1082 146.111 9.68729 145.957 9.32505C145.802 8.96281 145.566 8.68024 145.246 8.48033C144.925 8.28042 144.496 8.17971 143.953 8.17971C143.41 8.17971 142.956 8.29845 142.529 8.53744C142.103 8.77643 141.773 9.1056 141.542 9.52496C141.31 9.94582 141.193 10.4509 141.193 11.0431V18.6907H137.359V5.142H141.106V9.95334L140.699 8.77944ZM149.18 8.89367H150.603L149.878 10.1833C150.071 8.98085 150.381 7.97379 150.808 7.16213C151.233 6.35047 151.771 5.74474 152.42 5.34342C153.068 4.9421 153.848 4.74219 154.758 4.74219C155.668 4.74219 156.458 4.9421 157.068 5.34342C157.677 5.74474 158.133 6.30238 158.433 7.01934C158.734 7.7348 158.883 8.58103 158.883 9.55352V18.6907H155.05V10.5846C155.05 10.1082 154.972 9.68729 154.816 9.32505C154.661 8.96281 154.42 8.68024 154.091 8.48033C153.762 8.28042 153.336 8.17971 152.813 8.17971C152.251 8.17971 151.763 8.29845 151.347 8.53744C150.931 8.77643 150.611 9.1056 150.388 9.52496C150.166 9.94582 150.055 10.4509 150.055 11.0431H149.183V8.89517L149.18 8.89367Z" fill="currentColor"/>
<path d="M165.446 3.27915H161.438V0.558594H165.446V3.27915ZM165.358 18.6901H161.524V5.14146H165.358V18.6886V18.6901Z" fill="currentColor"/>
<path d="M171.429 8.77899H172.533L171.778 10.0386C171.972 8.8361 172.296 7.84708 172.75 7.0745C173.205 6.30193 173.772 5.71873 174.45 5.32794C175.128 4.93714 175.892 4.74023 176.744 4.74023C177.596 4.74023 178.386 4.94014 178.995 5.34146C179.605 5.74278 180.056 6.30042 180.346 7.01739C180.637 7.73285 180.782 8.57908 180.782 9.55157V18.6887H176.919V10.5827C176.919 10.1062 176.846 9.68534 176.701 9.3231C176.557 8.96086 176.323 8.67828 176.005 8.47837C175.686 8.27846 175.244 8.17776 174.683 8.17776C174.16 8.17776 173.686 8.2965 173.26 8.53549C172.833 8.77448 172.504 9.10365 172.272 9.52301C172.04 9.94387 171.923 10.4489 171.923 11.0411V18.6887H168.089V5.14155H171.836V9.95289L171.429 8.77899Z" fill="currentColor"/>
<path d="M182.641 11.9884C182.641 9.65866 183.062 7.864 183.905 6.60292C184.748 5.34335 185.943 4.72258 187.492 4.74061C188.44 4.72258 189.244 4.93601 189.903 5.38543C190.561 5.83485 191.093 6.47817 191.5 7.31838C191.907 8.1586 192.188 9.16115 192.343 10.326L192.169 11.557C192.169 10.5259 191.912 9.70526 191.4 9.09351C190.886 8.48326 190.174 8.17664 189.264 8.17664C188.296 8.17664 187.58 8.49228 187.115 9.12207C186.65 9.75185 186.419 10.7168 186.419 12.0155C186.419 13.2375 186.641 14.1589 187.086 14.7796C187.531 15.4004 188.257 15.71 189.264 15.71C189.865 15.71 190.383 15.5763 190.817 15.3087C191.253 15.0412 191.587 14.6699 191.819 14.1919C192.051 13.7155 192.168 13.1323 192.168 12.4454L192.313 13.4479C192.215 14.3077 192.037 15.0802 191.775 15.7671C191.513 16.4541 191.174 17.0523 190.758 17.5573C190.342 18.0638 189.857 18.4456 189.305 18.7026C188.754 18.9597 188.129 19.0889 187.432 19.0889C185.902 19.0889 184.721 18.4787 183.888 17.2552C183.056 16.0332 182.64 14.2761 182.64 11.9854L182.641 11.9884ZM192.604 9.83903H192.023L191.791 8.63658H192.634L192.605 9.83903H192.604ZM192.662 15.1389H191.819L192.081 13.9935H192.662V15.1389ZM192.168 18.6906V0.501953H196.001V18.6906H192.168Z" fill="currentColor"/>
</svg>
