<svg width="24" height="25" viewBox="0 0 24 25" fill="none" xmlns="http://www.w3.org/2000/svg">
<path d="M20 17.9819V12.4339C20 11.8999 20 11.6329 19.935 11.3839C19.8775 11.1638 19.7828 10.9551 19.655 10.7669C19.51 10.5539 19.31 10.3769 18.907 10.0259L14.107 5.8259C13.361 5.1729 12.987 4.8459 12.567 4.7219C12.197 4.6119 11.803 4.6119 11.432 4.7219C11.012 4.8459 10.64 5.1719 9.894 5.8239L5.093 10.0259C4.691 10.3779 4.49 10.5539 4.346 10.7659C4.2178 10.9544 4.12276 11.1634 4.065 11.3839C4 11.6319 4 11.8999 4 12.4339V17.9819C4 18.9139 4 19.3799 4.152 19.7469C4.2524 19.9896 4.39963 20.2102 4.58528 20.396C4.77093 20.5819 4.99137 20.7293 5.234 20.8299C5.602 20.9819 6.068 20.9819 7 20.9819C7.932 20.9819 8.398 20.9819 8.766 20.8299C9.00863 20.7293 9.22907 20.5819 9.41472 20.396C9.60037 20.2102 9.7476 19.9896 9.848 19.7469C10 19.3799 10 18.9139 10 17.9819V16.9819C10 16.4515 10.2107 15.9428 10.5858 15.5677C10.9609 15.1926 11.4696 14.9819 12 14.9819C12.5304 14.9819 13.0391 15.1926 13.4142 15.5677C13.7893 15.9428 14 16.4515 14 16.9819V17.9819C14 18.9139 14 19.3799 14.152 19.7469C14.2524 19.9896 14.3996 20.2102 14.5853 20.396C14.7709 20.5819 14.9914 20.7293 15.234 20.8299C15.602 20.9819 16.068 20.9819 17 20.9819C17.932 20.9819 18.398 20.9819 18.766 20.8299C19.0086 20.7293 19.2291 20.5819 19.4147 20.396C19.6004 20.2102 19.7476 19.9896 19.848 19.7469C20 19.3799 20 18.9139 20 17.9819Z" stroke="currentColor" stroke-width="2" stroke-linecap="round" stroke-linejoin="round"/>
</svg>
