<svg width="32" height="32" viewBox="0 0 32 32" fill="none" xmlns="http://www.w3.org/2000/svg">
<path d="M8.00016 14.6667V8.26667C8.00016 6.77333 8.00016 6.02667 8.29083 5.456C8.54683 4.95333 8.9535 4.54667 9.45616 4.29067C10.0268 4 10.7735 4 12.2668 4H18.6668M18.6668 4C19.0482 4.00267 19.2882 4.01867 19.5188 4.07333C19.7909 4.13888 20.051 4.24687 20.2895 4.39333C20.5575 4.55733 20.7895 4.78933 21.2508 5.25067L25.4175 9.41733C25.8788 9.87867 26.1082 10.108 26.2722 10.3773C26.4187 10.6158 26.5267 10.8759 26.5922 11.148C26.6482 11.3787 26.6615 11.62 26.6668 12M18.6668 4V7.73333C18.6668 9.22667 18.6668 9.97333 18.9575 10.544C19.2132 11.0457 19.6211 11.4537 20.1228 11.7093C20.6922 12 21.4388 12 22.9295 12H26.6668M26.6668 12V23.7387C26.6668 25.2293 26.6668 25.9747 26.3762 26.544C26.1204 27.0456 25.7125 27.4535 25.2108 27.7093C24.6402 28 23.8935 28 22.4042 28H17.3335M12.0002 18.6667L14.6668 21.3333M5.3335 28V24.6667L15.3335 14.6667L18.6668 18L8.66683 28H5.3335Z" stroke="#039C69" stroke-width="2" stroke-linecap="round" stroke-linejoin="round"/>
</svg>
