<svg width="24" height="25" viewBox="0 0 24 25" fill="none" xmlns="http://www.w3.org/2000/svg">
<path d="M12 15.9819L15 12.9819M15 12.9819L12 9.98193M15 12.9819H4M9 8.23093V8.18193C9 7.06193 9 6.50193 9.218 6.07393C9.41 5.69693 9.715 5.39193 10.092 5.19993C10.52 4.98193 11.08 4.98193 12.2 4.98193H16.8C17.92 4.98193 18.48 4.98193 18.907 5.19993C19.284 5.39193 19.59 5.69693 19.782 6.07393C20 6.50093 20 7.06093 20 8.17893V17.7859C20 18.9039 20 19.4629 19.782 19.8899C19.59 20.2664 19.2837 20.5724 18.907 20.7639C18.48 20.9819 17.921 20.9819 16.803 20.9819H12.197C11.079 20.9819 10.519 20.9819 10.092 20.7639C9.71569 20.5722 9.40974 20.2662 9.218 19.8899C9 19.4619 9 18.9019 9 17.7819V17.7319" stroke="currentColor" stroke-width="2" stroke-linecap="round" stroke-linejoin="round"/>
</svg>
