<svg width="25" height="25" viewBox="0 0 25 25" fill="none" xmlns="http://www.w3.org/2000/svg">
<path d="M17.217 20.3139C16.5612 19.5792 15.7572 18.9915 14.8581 18.5896C13.9589 18.1877 12.9849 17.9806 12 17.9819C9.927 17.9819 8.065 18.8819 6.783 20.3139M12 21.9819C10.8181 21.9819 9.64778 21.7491 8.55585 21.2969C7.46392 20.8446 6.47177 20.1816 5.63604 19.3459C4.80031 18.5102 4.13738 17.518 3.68508 16.4261C3.23279 15.3342 3 14.1638 3 12.9819C3 11.8 3.23279 10.6297 3.68508 9.53778C4.13738 8.44585 4.80031 7.4537 5.63604 6.61797C6.47177 5.78225 7.46392 5.11931 8.55585 4.66702C9.64778 4.21473 10.8181 3.98193 12 3.98193C14.3869 3.98193 16.6761 4.93015 18.364 6.61797C20.0518 8.3058 21 10.595 21 12.9819C21 15.3689 20.0518 17.6581 18.364 19.3459C16.6761 21.0337 14.3869 21.9819 12 21.9819ZM12 14.9819C11.606 14.9819 11.2159 14.9043 10.8519 14.7536C10.488 14.6028 10.1573 14.3818 9.87868 14.1033C9.6001 13.8247 9.37913 13.494 9.22836 13.13C9.0776 12.766 9 12.3759 9 11.9819C9 11.588 9.0776 11.1979 9.22836 10.8339C9.37913 10.4699 9.6001 10.1392 9.87868 9.86061C10.1573 9.58204 10.488 9.36106 10.8519 9.21029C11.2159 9.05953 11.606 8.98193 12 8.98193C12.7956 8.98193 13.5587 9.298 14.1213 9.86061C14.6839 10.4232 15 11.1863 15 11.9819C15 12.7776 14.6839 13.5406 14.1213 14.1033C13.5587 14.6659 12.7956 14.9819 12 14.9819Z" stroke="currentColor" stroke-width="2" stroke-linecap="round" stroke-linejoin="round"/>
<path d="M22.3266 18.0716L22.1589 17.9781L22.1071 17.9488C21.9821 17.8738 21.8769 17.7701 21.8 17.6463C21.7918 17.6339 21.7844 17.6206 21.7698 17.595C21.6709 17.4363 21.623 17.2513 21.6323 17.0647L21.635 16.8699C21.6405 16.5582 21.6433 16.4015 21.5993 16.2612C21.5603 16.1364 21.4952 16.0214 21.4081 15.9239C21.31 15.8139 21.1739 15.735 20.9012 15.5783L20.6748 15.4477C20.4035 15.2914 20.2673 15.213 20.123 15.1832C19.9954 15.1568 19.8637 15.1579 19.7366 15.1864C19.5931 15.2185 19.4588 15.2992 19.1907 15.4596L19.1893 15.4605L19.0271 15.5572C19.0014 15.5728 18.9881 15.5801 18.9753 15.5875C18.8479 15.6585 18.7058 15.6975 18.5596 15.702C18.5449 15.703 18.5298 15.703 18.5 15.703L18.4404 15.7025C18.2942 15.6978 18.1512 15.6582 18.0233 15.587C18.0105 15.5801 17.9981 15.5723 17.9725 15.5567L17.8088 15.4587C17.5389 15.2964 17.4037 15.2157 17.2593 15.1832C17.1317 15.1547 16.9995 15.1537 16.8715 15.1805C16.7267 15.2107 16.591 15.2895 16.3193 15.4472L16.3179 15.4477L16.0942 15.5774L16.0919 15.5792C15.8224 15.735 15.6872 15.8139 15.59 15.9234C15.5035 16.0208 15.4386 16.1355 15.3998 16.2598C15.3563 16.4005 15.3586 16.5573 15.3641 16.8708L15.3673 17.0651C15.3673 17.0949 15.3687 17.1096 15.3682 17.1238C15.3658 17.2903 15.3181 17.453 15.2303 17.5945C15.2151 17.6202 15.2083 17.633 15.2005 17.6449C15.1232 17.7697 15.0171 17.874 14.8911 17.9492L14.8398 17.9781L14.6743 18.0698C14.3984 18.2224 14.2604 18.299 14.1605 18.408C14.0717 18.5042 14.0045 18.6183 13.9634 18.7426C13.9176 18.8833 13.9176 19.0405 13.918 19.3559L13.919 19.6139C13.9194 19.927 13.9203 20.0832 13.9666 20.223C14.0075 20.3466 14.0742 20.46 14.1623 20.5558C14.2623 20.664 14.3988 20.74 14.6725 20.8922L14.8365 20.9834C14.8645 20.999 14.8787 21.0063 14.892 21.0146C15.0356 21.1007 15.1529 21.2245 15.2312 21.3725L15.2619 21.4275C15.3393 21.5737 15.3757 21.7381 15.3673 21.9033L15.3641 22.0898C15.3586 22.4042 15.3563 22.5619 15.4003 22.7026C15.4393 22.8273 15.5043 22.9423 15.5914 23.04C15.6895 23.15 15.8261 23.2283 16.0983 23.3855L16.3248 23.5162C16.5965 23.6725 16.7322 23.7508 16.8766 23.7806C17.0041 23.807 17.1359 23.8059 17.263 23.7774C17.4069 23.7453 17.5412 23.6647 17.8102 23.5033L17.9725 23.4062L18.0243 23.3759C18.1517 23.3053 18.2938 23.2659 18.44 23.2613L18.4995 23.2609H18.5591C18.7049 23.2655 18.8479 23.3053 18.9762 23.3764L19.0184 23.4016L19.1907 23.5052C19.4611 23.6674 19.5959 23.7481 19.7403 23.7802C19.8678 23.809 20 23.8103 20.128 23.7838C20.2724 23.7536 20.409 23.6743 20.6808 23.5166L20.9076 23.3851C21.1771 23.2283 21.3123 23.15 21.4095 23.0404C21.4966 22.9428 21.5608 22.8282 21.5997 22.704C21.6433 22.5642 21.641 22.4088 21.6355 22.0999L21.6318 21.8982V21.84C21.634 21.6734 21.6815 21.5105 21.7693 21.3689L21.7991 21.3185C21.8764 21.1937 21.9825 21.0893 22.1085 21.0141L22.1589 20.9862L22.1598 20.9857L22.3253 20.894C22.6012 20.741 22.7391 20.6649 22.8395 20.5558C22.9284 20.4595 22.9953 20.345 23.0361 20.2212C23.082 20.0814 23.082 19.9247 23.081 19.613L23.0801 19.3499C23.0797 19.0369 23.0792 18.8801 23.0329 18.7403C22.9919 18.6169 22.925 18.5036 22.8368 18.408C22.7373 18.2999 22.6007 18.2238 22.3275 18.0721L22.3266 18.0716Z" fill="white" stroke="currentColor" stroke-width="2" stroke-linecap="round" stroke-linejoin="round"/>
<path d="M16.666 19.4819C16.666 19.9681 16.8592 20.4344 17.203 20.7783C17.5468 21.1221 18.0131 21.3152 18.4993 21.3152C18.9856 21.3152 19.4519 21.1221 19.7957 20.7783C20.1395 20.4344 20.3327 19.9681 20.3327 19.4819C20.3327 18.9957 20.1395 18.5293 19.7957 18.1855C19.4519 17.8417 18.9856 17.6486 18.4993 17.6486C18.0131 17.6486 17.5468 17.8417 17.203 18.1855C16.8592 18.5293 16.666 18.9957 16.666 19.4819Z" fill="currentColor"/>
</svg>
