<svg width="32" height="32" viewBox="0 0 32 32" fill="none" xmlns="http://www.w3.org/2000/svg"><path d="M5.33333 8.00008L13.4773 14.1494L13.48 14.1521C14.384 14.8147 14.836 15.1467 15.332 15.2747C15.7701 15.3881 16.2299 15.3881 16.668 15.2747C17.164 15.1467 17.6173 14.8147 18.524 14.1494C18.524 14.1494 23.7467 10.1414 26.6667 8.00008M4 21.0667V10.9334C4 9.44008 4 8.69341 4.29067 8.12275C4.54667 7.62008 4.95333 7.21341 5.456 6.95741C6.02667 6.66675 6.77333 6.66675 8.26667 6.66675H23.7333C25.2267 6.66675 25.9733 6.66675 26.5427 6.95741C27.0453 7.21341 27.4533 7.62008 27.7093 8.12275C28 8.69208 28 9.43875 28 10.9294V21.0721C28 22.5627 28 23.3067 27.7093 23.8774C27.4532 24.3793 27.0448 24.7872 26.5427 25.0427C25.9733 25.3334 25.228 25.3334 23.7373 25.3334H8.26267C6.772 25.3334 6.02533 25.3334 5.456 25.0427C4.95426 24.7871 4.54633 24.3792 4.29067 23.8774C4 23.3067 4 22.5601 4 21.0667Z" stroke="white" stroke-width="2" stroke-linecap="round" stroke-linejoin="round"/></svg>