<svg width="24" height="25" viewBox="0 0 24 25" fill="none" xmlns="http://www.w3.org/2000/svg"><path d="M8 4.98242H7.2C6.08 4.98242 5.52 4.98242 5.092 5.20042C4.71565 5.39211 4.40969 5.69807 4.218 6.07442C4 6.50242 4 7.06242 4 8.18242V8.98242M8 4.98242H16M8 4.98242V2.98242M4 8.98242V17.7824C4 18.9024 4 19.4624 4.218 19.8904C4.40974 20.2667 4.71569 20.5727 5.092 20.7644C5.519 20.9824 6.079 20.9824 7.197 20.9824H16.803C17.921 20.9824 18.48 20.9824 18.907 20.7644C19.284 20.5724 19.59 20.2664 19.782 19.8904C20 19.4624 20 18.9044 20 17.7864V8.98242M4 8.98242H20M16 4.98242H16.8C17.92 4.98242 18.48 4.98242 18.907 5.20042C19.284 5.39242 19.59 5.69742 19.782 6.07442C20 6.50142 20 7.06142 20 8.17942V8.98242M16 4.98242V2.98242M16 16.9824H16.002V16.9844H16V16.9824ZM12 16.9824H12.002V16.9844H12V16.9824ZM8 16.9824H8.002V16.9844H8V16.9824ZM16.002 12.9824V12.9844H16V12.9824H16.002ZM12 12.9824H12.002V12.9844H12V12.9824ZM8 12.9824H8.002V12.9844H8V12.9824Z" stroke="currentColor" stroke-width="2" stroke-linecap="round" stroke-linejoin="round"/></svg>