<svg width="24" height="25" viewBox="0 0 24 25" fill="none" xmlns="http://www.w3.org/2000/svg"><path d="M20 17.9792V12.4312C20 11.8972 20 11.6302 19.935 11.3812C19.8775 11.1611 19.7828 10.9524 19.655 10.7642C19.51 10.5512 19.31 10.3742 18.907 10.0232L14.107 5.82322C13.361 5.17022 12.987 4.84322 12.567 4.71922C12.197 4.60922 11.803 4.60922 11.432 4.71922C11.012 4.84322 10.64 5.16922 9.894 5.82122L5.093 10.0232C4.691 10.3752 4.49 10.5512 4.346 10.7632C4.2178 10.9517 4.12276 11.1607 4.065 11.3812C4 11.6292 4 11.8972 4 12.4312V17.9792C4 18.9112 4 19.3772 4.152 19.7442C4.2524 19.9869 4.39963 20.2075 4.58528 20.3933C4.77093 20.5792 4.99137 20.7266 5.234 20.8272C5.602 20.9792 6.068 20.9792 7 20.9792C7.932 20.9792 8.398 20.9792 8.766 20.8272C9.00863 20.7266 9.22907 20.5792 9.41472 20.3933C9.60037 20.2075 9.7476 19.9869 9.848 19.7442C10 19.3772 10 18.9112 10 17.9792V16.9792C10 16.4488 10.2107 15.9401 10.5858 15.565C10.9609 15.1899 11.4696 14.9792 12 14.9792C12.5304 14.9792 13.0391 15.1899 13.4142 15.565C13.7893 15.9401 14 16.4488 14 16.9792V17.9792C14 18.9112 14 19.3772 14.152 19.7442C14.2524 19.9869 14.3996 20.2075 14.5853 20.3933C14.7709 20.5792 14.9914 20.7266 15.234 20.8272C15.602 20.9792 16.068 20.9792 17 20.9792C17.932 20.9792 18.398 20.9792 18.766 20.8272C19.0086 20.7266 19.2291 20.5792 19.4147 20.3933C19.6004 20.2075 19.7476 19.9869 19.848 19.7442C20 19.3772 20 18.9112 20 17.9792Z" stroke="white" stroke-width="2" stroke-linecap="round" stroke-linejoin="round"/></svg>