<svg xmlns="http://www.w3.org/2000/svg" xmlns:xlink="http://www.w3.org/1999/xlink"><symbol id="check-mark" viewBox="0 0 19 18"><g fill="none">
<path d="M7.25012 12.1275L4.12262 9L3.05762 10.0575L7.25012 14.25L16.2501 5.25L15.1926 4.1925L7.25012 12.1275Z" fill="white"/>
</g></symbol><symbol id="close" viewBox="0 0 49 49"><g fill="none">
<path fill-rule="evenodd" clip-rule="evenodd" d="M8.87868 35.0688C7.70711 36.2404 7.70711 38.1399 8.87868 39.3115C10.0503 40.483 11.9497 40.483 13.1213 39.3115L24.0951 28.3377L35.0689 39.3115C36.2404 40.483 38.1399 40.483 39.3115 39.3115C40.4831 38.1399 40.4831 36.2404 39.3115 35.0688L28.3377 24.095L39.3114 13.1213C40.483 11.9497 40.483 10.0503 39.3114 8.87868C38.1399 7.70711 36.2404 7.70711 35.0688 8.87868L24.0951 19.8524L13.1214 8.87868C11.9498 7.70711 10.0503 7.70711 8.87873 8.87868C7.70716 10.0503 7.70716 11.9497 8.87873 13.1213L19.8525 24.095L8.87868 35.0688Z" fill="#A3A3A3"/>
</g></symbol><symbol id="dropdown" viewBox="0 0 10 10"><g fill="none">
<path d="M2 4L5 7L8 4" stroke="#202020" stroke-linecap="round" stroke-linejoin="round"/>
</g></symbol></svg>