<svg xmlns="http://www.w3.org/2000/svg" xmlns:xlink="http://www.w3.org/1999/xlink"><symbol id="check-mark" viewBox="0 0 19 18"><g fill="none">
<path d="M7.25012 12.1275L4.12262 9L3.05762 10.0575L7.25012 14.25L16.2501 5.25L15.1926 4.1925L7.25012 12.1275Z" fill="white"/>
</g></symbol><symbol id="close" viewBox="0 0 49 49"><g fill="none">
<path fill-rule="evenodd" clip-rule="evenodd" d="M8.87868 35.0688C7.70711 36.2404 7.70711 38.1399 8.87868 39.3115C10.0503 40.483 11.9497 40.483 13.1213 39.3115L24.0951 28.3377L35.0689 39.3115C36.2404 40.483 38.1399 40.483 39.3115 39.3115C40.4831 38.1399 40.4831 36.2404 39.3115 35.0688L28.3377 24.095L39.3114 13.1213C40.483 11.9497 40.483 10.0503 39.3114 8.87868C38.1399 7.70711 36.2404 7.70711 35.0688 8.87868L24.0951 19.8524L13.1214 8.87868C11.9498 7.70711 10.0503 7.70711 8.87873 8.87868C7.70716 10.0503 7.70716 11.9497 8.87873 13.1213L19.8525 24.095L8.87868 35.0688Z" fill="#A3A3A3"/>
</g></symbol><symbol id="dropdown-green" viewBox="0 0 10 10"><g fill="none">
<path d="M2 4L5 7L8 4" stroke="#00AC73" stroke-linecap="round" stroke-linejoin="round"/>
</g></symbol><symbol id="dropdown" viewBox="0 0 10 10"><g fill="none">
<path d="M2 4L5 7L8 4" stroke="#202020" stroke-linecap="round" stroke-linejoin="round"/>
</g></symbol><symbol id="envelope" viewBox="0 0 32 24"><g fill="none">
<rect x="1" y="1" width="30" height="22" rx="2" stroke="#00AC73" stroke-width="2"/>
<path d="M1 3L15.717 14L31 3" stroke="#00AC73" stroke-width="2" stroke-linecap="round" stroke-linejoin="round"/>
</g></symbol><symbol id="error" viewBox="0 0 36 36"><g fill="none">
<rect width="36" height="36" rx="18" fill="#DC0000"/>
<path fill-rule="evenodd" clip-rule="evenodd" d="M10.2219 21.5355C9.05037 22.7071 9.05037 24.6066 10.2219 25.7782C11.3935 26.9497 13.293 26.9497 14.4646 25.7782L18.0001 22.2426L21.5357 25.7782C22.7072 26.9497 24.6067 26.9497 25.7783 25.7782C26.9499 24.6066 26.9499 22.7071 25.7783 21.5355L22.2428 18L25.7783 14.4645C26.9499 13.2929 26.9499 11.3934 25.7783 10.2218C24.6067 9.05025 22.7072 9.05025 21.5356 10.2218L18.0001 13.7573L14.4646 10.2218C13.293 9.05025 11.3935 9.05025 10.222 10.2218C9.05038 11.3934 9.05038 13.2929 10.222 14.4645L13.7575 18L10.2219 21.5355Z" fill="white"/>
</g></symbol><symbol id="success" viewBox="0 0 36 36"><g fill="none">
<rect width="36" height="36" rx="18" fill="#00AC73"/>
<path d="M8.375 19.8958L14.5625 26.25L26.9375 11" stroke="white" stroke-width="6" stroke-linecap="round" stroke-linejoin="round"/>
</g></symbol><symbol id="video" viewBox="0 0 60 45"><g fill="none">
<rect x="0.5" y="2.21875" width="46.0938" height="40.5625" rx="10" fill="#A3A3A3"/>
<path d="M59.5 12.4375C59.5 11.8852 59.0508 11.4328 58.5007 11.482C52.8593 11.9871 48.4375 16.7272 48.4375 22.5C48.4375 28.2728 52.8593 33.0129 58.5007 33.518C59.0508 33.5672 59.5 33.1148 59.5 32.5625V12.4375Z" fill="#A3A3A3"/>
</g></symbol></svg>