<svg xmlns="http://www.w3.org/2000/svg" xmlns:xlink="http://www.w3.org/1999/xlink"><symbol id="calendar-cancel" viewBox="0 0 32 32"><g fill="none"><path d="M5.33301 10.667H26.6663M5.33301 10.667V22.4003C5.33301 23.8937 5.33301 24.6403 5.62367 25.211C5.87933 25.7127 6.28726 26.1207 6.78901 26.3763C7.35834 26.667 8.10501 26.667 9.59567 26.667H22.4037C23.8943 26.667 24.6397 26.667 25.209 26.3763C25.7117 26.1203 26.1197 25.7123 26.3757 25.211C26.6663 24.6403 26.6663 23.8963 26.6663 22.4057V10.667M5.33301 10.667V9.60033C5.33301 8.10699 5.33301 7.36033 5.62367 6.78966C5.87967 6.28699 6.28634 5.88033 6.78901 5.62433C7.35967 5.33366 8.10634 5.33366 9.59967 5.33366H10.6663M26.6663 10.667V9.59633C26.6663 8.10566 26.6663 7.35899 26.3757 6.78966C26.1197 6.28771 25.7112 5.87976 25.209 5.62433C24.6397 5.33366 23.893 5.33366 22.3997 5.33366H21.333M10.6663 5.33366H21.333M10.6663 5.33366V2.66699M21.333 5.33366V2.66699M19.333 18.667H12.6663" stroke="currentColor" stroke-width="2" stroke-linecap="round" stroke-linejoin="round"/></g></symbol><symbol id="calendar-check" viewBox="0 0 32 32"><g fill="none"><path d="M5.3335 10.667H26.6668M5.3335 10.667V22.4003C5.3335 23.8937 5.3335 24.6403 5.62416 25.211C5.87982 25.7127 6.28775 26.1207 6.7895 26.3763C7.35883 26.667 8.1055 26.667 9.59616 26.667H22.4042C23.8948 26.667 24.6402 26.667 25.2095 26.3763C25.7122 26.1203 26.1202 25.7123 26.3762 25.211C26.6668 24.6403 26.6668 23.8963 26.6668 22.4057V10.667M5.3335 10.667V9.60033C5.3335 8.10699 5.3335 7.36033 5.62416 6.78966C5.88016 6.28699 6.28683 5.88033 6.7895 5.62433C7.36016 5.33366 8.10683 5.33366 9.60016 5.33366H10.6668M26.6668 10.667V9.59633C26.6668 8.10566 26.6668 7.35899 26.3762 6.78966C26.1202 6.28771 25.7117 5.87976 25.2095 5.62433C24.6402 5.33366 23.8935 5.33366 22.4002 5.33366H21.3335M10.6668 5.33366H21.3335M10.6668 5.33366V2.66699M21.3335 5.33366V2.66699M20.0002 16.0003L14.6668 21.3337L12.0002 18.667" stroke="currentColor" stroke-width="2" stroke-linecap="round" stroke-linejoin="round"/></g></symbol><symbol id="calendar-reschedule" viewBox="0 0 32 32"><g fill="none"><path d="M5.3335 10.667H26.6668M5.3335 10.667V22.4003C5.3335 23.8937 5.3335 24.6403 5.62416 25.211C5.87982 25.7127 6.28775 26.1207 6.7895 26.3763C7.35883 26.667 8.1055 26.667 9.59616 26.667H22.4042C23.8948 26.667 24.6402 26.667 25.2095 26.3763C25.7122 26.1203 26.1202 25.7123 26.3762 25.211C26.6668 24.6403 26.6668 23.8963 26.6668 22.4057V10.667M5.3335 10.667V9.60033C5.3335 8.10699 5.3335 7.36033 5.62416 6.78966C5.88016 6.28699 6.28683 5.88033 6.7895 5.62433C7.36016 5.33366 8.10683 5.33366 9.60016 5.33366H10.6668M26.6668 10.667V9.59633C26.6668 8.10566 26.6668 7.35899 26.3762 6.78966C26.1202 6.28771 25.7117 5.87976 25.2095 5.62433C24.6402 5.33366 23.8935 5.33366 22.4002 5.33366H21.3335M10.6668 5.33366H21.3335M10.6668 5.33366V2.66699M21.3335 5.33366V2.66699M15.6668 21.3337C15.7552 21.3337 15.84 21.2985 15.9025 21.236C15.965 21.1735 16.0002 21.0887 16.0002 21.0003V16.3337C16.0002 16.2453 15.965 16.1605 15.9025 16.098C15.84 16.0354 15.7552 16.0003 15.6668 16.0003H11.0002C10.9118 16.0003 10.827 16.0354 10.7645 16.098C10.7019 16.1605 10.6668 16.2453 10.6668 16.3337V21.0003C10.6668 21.1843 10.8162 21.3337 11.0002 21.3337H15.6668Z" stroke="#039C69" stroke-width="2" stroke-linecap="round" stroke-linejoin="round"/></g></symbol><symbol id="chat" viewBox="0 0 32 32"><g fill="none"><path d="M21.3333 10.6663H26.6667C27.0203 10.6663 27.3594 10.8068 27.6095 11.0569C27.8595 11.3069 28 11.6461 28 11.9997V26.6663L23.556 22.9743C23.3163 22.7751 23.0144 22.6661 22.7027 22.6663H12C11.6464 22.6663 11.3072 22.5259 11.0572 22.2758C10.8071 22.0258 10.6667 21.6866 10.6667 21.333V17.333M21.3333 10.6663V6.66634C21.3333 6.31272 21.1929 5.97358 20.9428 5.72353C20.6928 5.47348 20.3536 5.33301 20 5.33301H5.33333C4.97971 5.33301 4.64057 5.47348 4.39052 5.72353C4.14048 5.97358 4 6.31272 4 6.66634V21.333L8.444 17.6397C8.684 17.4423 8.98533 17.333 9.29733 17.333H10.6667M21.3333 10.6663V15.9997C21.3333 16.3533 21.1929 16.6924 20.9428 16.9425C20.6928 17.1925 20.3536 17.333 20 17.333H10.6667" stroke="#039C69" stroke-width="2" stroke-linecap="round" stroke-linejoin="round"/></g></symbol><symbol id="check-mark" viewBox="0 0 19 18"><g fill="none"><path d="M7.25012 12.1275L4.12262 9L3.05762 10.0575L7.25012 14.25L16.2501 5.25L15.1926 4.1925L7.25012 12.1275Z" fill="white"/></g></symbol><symbol id="chevron-up" viewBox="0 0 32 32"><g fill="none"><path d="M6.66602 21.3333L15.9993 12L25.3327 21.3333" stroke="currentColor" stroke-width="2" stroke-linecap="round" stroke-linejoin="round"/></g></symbol><symbol id="close-modal" viewBox="0 0 33 33"><g fill="none"><path fill-rule="evenodd" clip-rule="evenodd" d="M0.87868 27.0688C-0.292893 28.2404 -0.292893 30.1399 0.87868 31.3115C2.05025 32.483 3.94975 32.483 5.12132 31.3115L16.0951 20.3377L27.0689 31.3115C28.2404 32.483 30.1399 32.483 31.3115 31.3115C32.4831 30.1399 32.4831 28.2404 31.3115 27.0688L20.3377 16.095L31.3114 5.12132C32.483 3.94975 32.483 2.05025 31.3114 0.87868C30.1399 -0.292893 28.2404 -0.292894 27.0688 0.87868L16.0951 11.8524L5.12137 0.87868C3.9498 -0.292894 2.0503 -0.292893 0.878732 0.87868C-0.292841 2.05025 -0.292842 3.94975 0.878732 5.12132L11.8525 16.095L0.87868 27.0688Z" fill="#A3A3A3"/></g></symbol><symbol id="close" viewBox="0 0 49 49"><g fill="none"><path fill-rule="evenodd" clip-rule="evenodd" d="M8.87868 35.0688C7.70711 36.2404 7.70711 38.1399 8.87868 39.3115C10.0503 40.483 11.9497 40.483 13.1213 39.3115L24.0951 28.3377L35.0689 39.3115C36.2404 40.483 38.1399 40.483 39.3115 39.3115C40.4831 38.1399 40.4831 36.2404 39.3115 35.0688L28.3377 24.095L39.3114 13.1213C40.483 11.9497 40.483 10.0503 39.3114 8.87868C38.1399 7.70711 36.2404 7.70711 35.0688 8.87868L24.0951 19.8524L13.1214 8.87868C11.9498 7.70711 10.0503 7.70711 8.87873 8.87868C7.70716 10.0503 7.70716 11.9497 8.87873 13.1213L19.8525 24.095L8.87868 35.0688Z" fill="#A3A3A3"/></g></symbol><symbol id="dropdown-green" viewBox="0 0 10 10"><g fill="none"><path d="M2 4L5 7L8 4" stroke="#00AC73" stroke-linecap="round" stroke-linejoin="round"/></g></symbol><symbol id="dropdown-icon" viewBox="0 0 16 16"><g fill="none"><path d="M3.2002 11.2002L8.0002 6.4002L12.8002 11.2002" stroke="#202020" stroke-width="2" stroke-linecap="round" stroke-linejoin="round"/></g></symbol><symbol id="dropdown" viewBox="0 0 10 10"><g fill="none"><path d="M2 4L5 7L8 4" stroke="currentColor" stroke-linecap="round" stroke-linejoin="round"/></g></symbol><symbol id="envelope" viewBox="0 0 32 24"><g fill="none"><rect x="1" y="1" width="30" height="22" rx="2" stroke="#00AC73" stroke-width="2"/><path d="M1 3L15.717 14L31 3" stroke="#00AC73" stroke-width="2" stroke-linecap="round" stroke-linejoin="round"/></g></symbol><symbol id="error" viewBox="0 0 36 36"><g fill="none"><rect width="36" height="36" rx="18" fill="#DC0000"/><path fill-rule="evenodd" clip-rule="evenodd" d="M10.2219 21.5355C9.05037 22.7071 9.05037 24.6066 10.2219 25.7782C11.3935 26.9497 13.293 26.9497 14.4646 25.7782L18.0001 22.2426L21.5357 25.7782C22.7072 26.9497 24.6067 26.9497 25.7783 25.7782C26.9499 24.6066 26.9499 22.7071 25.7783 21.5355L22.2428 18L25.7783 14.4645C26.9499 13.2929 26.9499 11.3934 25.7783 10.2218C24.6067 9.05025 22.7072 9.05025 21.5356 10.2218L18.0001 13.7573L14.4646 10.2218C13.293 9.05025 11.3935 9.05025 10.222 10.2218C9.05038 11.3934 9.05038 13.2929 10.222 14.4645L13.7575 18L10.2219 21.5355Z" fill="white"/></g></symbol><symbol id="icon-loader" viewBox="0 0 32 32"><g fill="none"><path d="M23.1091 8.91761C23.5759 9.3031 24.1688 9.51503 24.7772 9.51503C25.5491 9.51503 26.2756 9.18237 26.7717 8.60234C27.6932 7.52331 27.5493 5.90855 26.4512 5.00242C25.9838 4.61694 25.3908 4.40467 24.7818 4.40467C24.0102 4.40467 23.2837 4.73734 22.7883 5.31737C21.8664 6.39672 22.0107 8.01115 23.1091 8.91761Z" fill="white"/><path d="M29.2464 11.842C29.0852 11.842 28.9222 11.8561 28.763 11.8837C27.2655 12.1432 26.2612 13.5523 26.5253 15.0243C26.7577 16.3218 27.8979 17.2634 29.2361 17.2634C29.397 17.2634 29.5606 17.2493 29.7205 17.2221C31.218 16.9622 32.2219 15.5535 31.9578 14.0821C31.7248 12.7843 30.5843 11.842 29.2464 11.842Z" fill="white"/><path d="M29.1506 20.7055C28.7072 20.4536 28.2044 20.321 27.6969 20.321C26.6559 20.321 25.6863 20.8705 25.1665 21.755C24.7775 22.4174 24.6733 23.189 24.8753 23.9285C25.0773 24.668 25.5604 25.2864 26.2339 25.6686C26.6776 25.9209 27.1804 26.0537 27.6886 26.0537C28.7289 26.0537 29.6985 25.5045 30.218 24.6204C31.0213 23.2517 30.5425 21.4955 29.1506 20.7055Z" fill="white"/><path d="M20.8565 25.8014C20.4992 25.8014 20.1453 25.8631 19.8048 25.9845C19.0335 26.2604 18.4182 26.8152 18.0709 27.5464C17.724 28.2777 17.6876 29.0979 17.9681 29.8561C18.4088 31.0456 19.57 31.8451 20.8575 31.8451C21.2147 31.8451 21.5686 31.7835 21.9082 31.6618C22.6788 31.3859 23.2937 30.8314 23.6413 30.0988C23.9885 29.3672 24.0253 28.5471 23.7455 27.7902C23.3054 26.6009 22.1439 25.8014 20.8565 25.8014Z" fill="white"/><path d="M13.0394 25.8379C12.6808 25.7099 12.3089 25.6449 11.9343 25.6449C10.5808 25.6449 9.36012 26.4855 8.89704 27.7364C8.60122 28.5339 8.63962 29.3964 9.00454 30.1651C9.36914 30.9341 10.0165 31.5171 10.8282 31.8074C11.1861 31.9357 11.5584 32 11.934 32C13.2882 32 14.5085 31.1595 14.9712 29.9095C15.2664 29.1136 15.2277 28.2511 14.8624 27.4818C14.4968 26.7115 13.8497 26.1279 13.0394 25.8379Z" fill="white"/><path d="M8.03564 21.5214C7.43132 20.4936 6.30516 19.8555 5.09586 19.8555C4.50457 19.8555 3.91995 20.0103 3.40412 20.302C2.61951 20.7472 2.0586 21.4663 1.82455 22.3249C1.58984 23.1844 1.71003 24.0823 2.1631 24.853C2.76741 25.8812 3.89391 26.5196 5.10321 26.5196C5.69417 26.5196 6.27878 26.3647 6.79429 26.0727C8.41292 25.1545 8.96982 23.1126 8.03564 21.5214Z" fill="white"/><path d="M3.55469 18.0409C5.27682 18.0409 6.74487 16.8287 7.04469 15.1585C7.20896 14.2409 7.00029 13.3157 6.45641 12.5536C5.91319 11.7905 5.09987 11.2814 4.16569 11.1193C3.95868 11.0839 3.74934 11.0658 3.54468 11.0658C1.82255 11.0658 0.354496 12.2777 0.0546753 13.9479C-0.109592 14.8649 0.0990808 15.79 0.642964 16.5531C1.18651 17.3159 2.00017 17.8254 2.93368 17.9871C3.13969 18.0229 3.34869 18.0409 3.55469 18.0409Z" fill="white"/><path d="M8.01327 10.6029C8.88101 10.6029 9.72638 10.3001 10.3938 9.75058C11.151 9.12627 11.6155 8.24802 11.7019 7.27759C11.7884 6.30716 11.4859 5.36297 10.8502 4.61891C10.1444 3.79217 9.10838 3.31811 8.00859 3.31811C7.13952 3.31811 6.29414 3.62059 5.62773 4.1701C4.8695 4.79541 4.40407 5.67365 4.31793 6.64277C4.23146 7.61124 4.53428 8.55575 5.17099 9.30146C5.8778 10.1285 6.91348 10.6029 8.01327 10.6029Z" fill="white"/><path d="M16.3955 7.92356C18.6223 7.92356 20.4274 6.14981 20.4274 3.96178C20.4274 1.77375 18.6223 0 16.3955 0C14.1688 0 12.3637 1.77375 12.3637 3.96178C12.3637 6.14981 14.1688 7.92356 16.3955 7.92356Z" fill="white"/></g></symbol><symbol id="icon-plus" viewBox="0 0 15 15"><g fill="none"><path fill-rule="evenodd" clip-rule="evenodd" d="M13.433 9.28247C14.2615 9.28266 14.9329 8.61125 14.9327 7.78282C14.9325 6.95439 14.2607 6.28266 13.4323 6.28247L9.28095 6.28149L9.28069 2.12245C9.28064 1.29402 8.60902 0.62241 7.7806 0.622358C6.95217 0.622306 6.28064 1.29384 6.28069 2.12226L6.28095 6.28078L2.12097 6.2798C1.29254 6.2796 0.621125 6.95102 0.62132 7.77944C0.621516 8.60787 1.29325 9.2796 2.12167 9.2798L6.28114 9.28078L6.2814 13.4336C6.28145 14.262 6.95306 14.9337 7.78149 14.9337C8.60992 14.9338 9.28145 14.2622 9.2814 13.4338L9.28114 9.28149L13.433 9.28247Z" fill="white"/></g></symbol><symbol id="logo" viewBox="0 0 196 24"><g fill="none"><path d="M6.44909 19.0901C4.91875 19.0901 3.70392 18.8992 2.80309 18.5174C1.90226 18.1356 1.23921 17.611 0.813948 16.9422C0.387159 16.2733 0.117367 15.5383 0 14.7372L3.45699 14.0217C3.57284 14.5192 3.75727 14.9431 4.00877 15.2963C4.26027 15.6495 4.59408 15.9171 5.01173 16.0974C5.42785 16.2793 5.93542 16.3695 6.53597 16.3695C7.21427 16.3695 7.72641 16.2553 8.07547 16.0253C8.42452 15.7953 8.59828 15.4526 8.59828 14.9942C8.59828 14.7266 8.52055 14.4877 8.3666 14.2787C8.21112 14.0683 7.90627 13.8774 7.45205 13.7061C6.9963 13.5347 6.34392 13.3814 5.49187 13.2476C4.23284 12.9801 3.23598 12.6509 2.49977 12.2586C1.76355 11.8678 1.23159 11.3988 0.902355 10.8547C0.573117 10.3106 0.408498 9.65678 0.408498 8.89322C0.408498 7.59457 0.887112 6.57849 1.84586 5.84349C2.80462 5.10849 4.24198 4.74023 6.15949 4.74023C7.49625 4.74023 8.5556 4.90257 9.34059 5.22723C10.1241 5.55189 10.7155 6.01484 11.1118 6.61607C11.5081 7.2173 11.8038 7.91923 11.9974 8.72187L8.54036 9.46739C8.3666 8.74141 8.09528 8.21684 7.72794 7.89217C7.35907 7.56751 6.80729 7.40518 6.0726 7.40518C5.41413 7.40518 4.9157 7.5149 4.57732 7.73435C4.23893 7.9538 4.06974 8.27396 4.06974 8.69331C4.06974 8.94132 4.14291 9.18031 4.28771 9.40877C4.43251 9.63724 4.71907 9.83414 5.14434 9.99647C5.5696 10.1588 6.20979 10.3256 7.06184 10.497C8.45653 10.7645 9.5357 11.1087 10.3009 11.5281C11.066 11.949 11.5934 12.4299 11.8846 12.9741C12.1757 13.5182 12.3205 14.1434 12.3205 14.8499C12.3205 15.7096 12.1223 16.4642 11.7245 17.112C11.3267 17.7613 10.6926 18.2528 9.82225 18.5865C8.95038 18.9202 7.82701 19.0871 6.45367 19.0871L6.44909 19.0901Z" fill="currentColor"/><path d="M18.0683 5.14155V22.9575H14.2349V5.14155H18.0683ZM17.5745 15.1099V14.0217H18.1842L18.4448 15.1099H17.573H17.5745ZM17.6614 9.86721V8.60764H18.4448L18.2421 9.86721H17.6614ZM27.6239 11.9009C27.6239 14.2111 27.1971 15.9922 26.3465 17.2428C25.4945 18.4933 24.3132 19.1096 22.8027 19.0901C22.0863 19.0901 21.4522 18.9608 20.9004 18.7038C20.3486 18.4452 19.87 18.0695 19.463 17.572C19.0561 17.0759 18.7177 16.4792 18.4464 15.7818C18.175 15.0844 17.9906 14.3073 17.8946 13.4475L18.0683 12.4164C18.0683 13.0657 18.1888 13.6384 18.4311 14.1344C18.6735 14.6304 19.0119 15.0227 19.4478 15.3083C19.8837 15.5954 20.402 15.7382 21.0025 15.7382C21.9902 15.7382 22.7158 15.4181 23.1807 14.7792C23.6456 14.1404 23.8773 13.189 23.8773 11.9294C23.8773 10.6699 23.6456 9.75298 23.1807 9.12319C22.7158 8.4934 21.9902 8.17776 21.0025 8.17776C20.402 8.17776 19.8792 8.31153 19.4341 8.57908C18.989 8.84663 18.6491 9.22841 18.4174 9.72442C18.1857 10.2204 18.0683 10.8126 18.0683 11.4995L17.9235 10.3256C18.0775 9.16077 18.3641 8.15822 18.7802 7.318C19.1963 6.47778 19.7389 5.83898 20.4065 5.39858C21.0742 4.95968 21.8835 4.74023 22.8316 4.74023C24.3604 4.74023 25.5433 5.35649 26.3755 6.58751C27.2077 7.81852 27.6239 9.59065 27.6239 11.9009Z" fill="currentColor"/><path d="M35.8732 19.0622C34.4983 19.0622 33.2881 18.8052 32.2425 18.2882C31.1968 17.7726 30.3783 17.0045 29.7884 15.9824C29.197 14.9619 28.9028 13.6873 28.9028 12.1586C28.9028 10.63 29.1833 9.26071 29.7457 8.16347C30.3067 7.06622 31.1054 6.22601 32.1419 5.64282C33.1768 5.06113 34.4404 4.76953 35.9327 4.76953C37.3456 4.76953 38.5178 5.02656 39.4476 5.54361C40.3774 6.05917 41.0648 6.78064 41.5099 7.70653C41.955 8.63243 42.1775 9.71614 42.1775 10.9577C42.1775 11.2628 42.1821 11.5634 42.1927 11.8595C42.2019 12.1556 42.1775 12.4758 42.1196 12.8185H31.6343V10.7848H39.5634L38.6626 11.5003C38.7586 10.2212 38.565 9.26221 38.0819 8.6219C37.5971 7.9831 36.8518 7.66294 35.8458 7.66294C34.7803 7.66294 33.9862 7.99212 33.4634 8.65197C32.9406 9.31031 32.6799 10.394 32.6799 11.9031C32.6799 13.298 32.9512 14.3231 33.4923 14.9829C34.035 15.6412 34.8474 15.9704 35.9327 15.9704C36.5515 15.9704 37.0515 15.8802 37.4279 15.6984C37.806 15.5165 38.1001 15.2835 38.3135 14.9964C38.5269 14.7093 38.6916 14.3862 38.8074 14.0224L42.0601 14.8822C41.8467 15.6653 41.4977 16.3808 41.0145 17.0301C40.5298 17.6794 39.8774 18.1814 39.0543 18.5332C38.2312 18.8864 37.1704 19.0637 35.8732 19.0637V19.0622Z" fill="currentColor"/><path d="M47.5505 18.9765C46.7761 18.9765 46.0735 18.8383 45.4439 18.5617C44.8144 18.2851 44.3206 17.8598 43.9624 17.2871C43.6042 16.7144 43.4243 15.9794 43.4243 15.0821C43.4243 13.8796 43.8206 12.8966 44.6148 12.1315C45.4089 11.368 46.7152 10.9862 48.5366 10.9862H52.6033L52.6613 12.9913H49.2332C48.5549 12.9913 48.0275 13.1206 47.6495 13.3776C47.2715 13.6346 47.0825 13.9939 47.0825 14.4523C47.0825 14.7394 47.1557 15.0069 47.3005 15.2549C47.4453 15.5029 47.6724 15.6983 47.9833 15.8426C48.2928 15.9854 48.6906 16.0576 49.1738 16.0576C49.7743 16.0576 50.2972 15.9478 50.7422 15.7284C51.1873 15.509 51.5364 15.2038 51.7879 14.8115C52.0394 14.4207 52.1659 13.9863 52.1659 13.5084V10.128C52.1659 9.38393 51.9967 8.81577 51.6583 8.42347C51.3199 8.03267 50.7529 7.83577 49.9588 7.83577C49.3003 7.83577 48.7683 7.9981 48.3614 8.32277C47.9544 8.64743 47.6937 9.16298 47.5764 9.86943L43.9456 9.1239C44.1011 8.30323 44.4151 7.56371 44.8891 6.90387C45.3632 6.24552 46.0369 5.73448 46.9072 5.37224C47.7791 5.01 48.8537 4.82812 50.131 4.82812C51.5257 4.82812 52.6536 5.02352 53.5148 5.41583C54.376 5.80813 55.0056 6.40485 55.4034 7.20598C55.7997 8.00862 55.9994 8.99163 55.9994 10.1565V18.6925H52.3396V14.3967L52.8045 15.4849H51.8168L52.3686 13.7955C52.2528 14.8656 51.9906 15.7855 51.5851 16.5596C51.1782 17.3322 50.6462 17.9304 49.9877 18.3498C49.3293 18.7691 48.5153 18.9795 47.5474 18.9795L47.5505 18.9765Z" fill="currentColor"/><path d="M62.4209 0.501953V18.6906H58.5874V0.501953H62.4209ZM62.4209 11.7299L67.1552 5.14193H71.5405V5.39896L65.2087 13.2179H60.2702V10.4688H65.3246L71.8316 18.4321V18.6891H67.4174L62.2182 11.757L62.4209 11.7284V11.7299Z" fill="currentColor"/><path d="M82.4039 17.4298L84.4952 18.6894L82.0549 18.7751L76.7688 5.1407H80.9513L82.4329 10.1249C82.5884 10.6976 82.7576 11.3138 82.9405 11.9722C83.1249 12.6305 83.3185 13.2949 83.5212 13.9622C83.7239 14.6311 83.9129 15.2849 84.0882 15.9237C84.262 16.564 84.4083 17.1608 84.5242 17.7139L82.8978 14.9933H85.1339L83.5365 17.6853C83.7498 16.8256 83.9724 15.9628 84.2041 15.0925C84.4358 14.2238 84.6736 13.37 84.9159 12.5283C85.1583 11.6881 85.3656 10.905 85.5408 10.179L86.9066 5.1377H91.0601L85.5698 18.7149C85.1247 19.8227 84.6156 20.7245 84.0456 21.422C83.474 22.1194 82.7865 22.6395 81.9832 22.9837C81.18 23.3279 80.1968 23.4992 79.0354 23.4992C78.5903 23.4992 78.2031 23.4797 77.8739 23.4421C77.5446 23.403 77.2063 23.3564 76.8572 23.2993L77.38 20.0918C77.6513 20.1489 77.9364 20.2015 78.2367 20.2496C78.5369 20.2977 78.8326 20.3217 79.1222 20.3217C79.7228 20.3217 80.2121 20.2451 80.5886 20.0933C80.9666 19.9399 81.2897 19.6634 81.561 19.2621C81.8324 18.8607 82.1128 18.2505 82.4039 17.4283V17.4298Z" fill="currentColor"/><path d="M98.1189 19.0901C96.6282 19.0901 95.3539 18.7985 94.2991 18.2168C93.2428 17.6351 92.4304 16.8039 91.8588 15.7247C91.2872 14.6455 91.0022 13.3709 91.0022 11.9009C91.0022 10.4309 91.2933 9.10816 91.8741 8.04849C92.4548 6.98883 93.2779 6.17266 94.3433 5.59999C95.4088 5.02732 96.6678 4.74023 98.1189 4.74023C99.57 4.74023 100.795 5.02732 101.852 5.59999C102.907 6.17266 103.725 6.98883 104.306 8.04849C104.887 9.10816 105.178 10.3933 105.178 11.9009C105.178 14.1344 104.548 15.8915 103.289 17.1706C102.03 18.4497 100.306 19.0901 98.1189 19.0901ZM98.09 8.00641C96.9864 8.00641 96.1679 8.35061 95.6359 9.03752C95.1024 9.72442 94.8372 10.6699 94.8372 11.8738C94.8372 12.6945 94.953 13.4024 95.1863 13.9931C95.4179 14.5854 95.7716 15.0348 96.2471 15.3399C96.7212 15.645 97.337 15.7983 98.0915 15.7983C99.195 15.7983 100.009 15.4541 100.532 14.7672C101.055 14.0803 101.315 13.1153 101.315 11.8738C101.315 11.0712 101.199 10.3798 100.966 9.79657C100.735 9.21488 100.381 8.76997 99.9053 8.46485C99.4313 8.15972 98.8262 8.00641 98.09 8.00641Z" fill="currentColor"/><path d="M116.36 15.0514H115.256L115.953 13.7617C115.797 14.9461 115.492 15.9337 115.038 16.7258C114.582 17.5179 114.017 18.1101 113.338 18.5024C112.66 18.8932 111.906 19.0901 111.073 19.0901C110.163 19.0901 109.407 18.8902 108.808 18.4889C108.208 18.0876 107.758 17.5299 107.458 16.813C107.158 16.0975 107.008 15.2513 107.008 14.2773V5.1416H110.842V13.2477C110.842 13.7061 110.924 14.1209 111.089 14.4937C111.253 14.8665 111.496 15.1521 111.814 15.3535C112.134 15.5534 112.544 15.6541 113.049 15.6541C113.63 15.6541 114.128 15.5293 114.544 15.2813C114.96 15.0333 115.285 14.6996 115.517 14.2788C115.748 13.8594 115.866 13.3619 115.866 12.7892V5.1416H119.699V18.6888H115.953V13.8775L116.36 15.0514Z" fill="currentColor"/><path d="M125.653 9.55309L126.496 9.58165L126.031 10.9284C126.205 9.66883 126.423 8.65576 126.685 7.8922C126.945 7.12864 127.241 6.54094 127.57 6.1306C127.9 5.72026 128.272 5.43317 128.689 5.27084C129.105 5.10851 129.566 5.02734 130.069 5.02734H130.562V9.35168H129.604C128.732 9.35168 128.044 9.45239 127.541 9.65229C127.038 9.8522 126.68 10.1784 126.467 10.6263C126.253 11.0757 126.147 11.701 126.147 12.5021V18.6888H122.313V5.14158H126.002V10.984L125.653 9.55159V9.55309Z" fill="currentColor"/><path d="M140.699 8.77944H141.802L141.019 10.2119C141.212 8.97033 141.537 7.94974 141.991 7.1471C142.446 6.34446 143.008 5.74323 143.676 5.34342C144.343 4.9436 145.113 4.74219 145.985 4.74219C146.857 4.74219 147.616 4.9421 148.207 5.34342C148.797 5.74474 149.233 6.30238 149.515 7.01934C149.795 7.7348 149.936 8.58103 149.936 9.55352L150.052 10.4133V18.6907H146.189V10.5846C146.189 10.1082 146.111 9.68729 145.957 9.32505C145.802 8.96281 145.566 8.68024 145.246 8.48033C144.925 8.28042 144.496 8.17971 143.953 8.17971C143.41 8.17971 142.956 8.29845 142.529 8.53744C142.103 8.77643 141.773 9.1056 141.542 9.52496C141.31 9.94582 141.193 10.4509 141.193 11.0431V18.6907H137.359V5.142H141.106V9.95334L140.699 8.77944ZM149.18 8.89367H150.603L149.878 10.1833C150.071 8.98085 150.381 7.97379 150.808 7.16213C151.233 6.35047 151.771 5.74474 152.42 5.34342C153.068 4.9421 153.848 4.74219 154.758 4.74219C155.668 4.74219 156.458 4.9421 157.068 5.34342C157.677 5.74474 158.133 6.30238 158.433 7.01934C158.734 7.7348 158.883 8.58103 158.883 9.55352V18.6907H155.05V10.5846C155.05 10.1082 154.972 9.68729 154.816 9.32505C154.661 8.96281 154.42 8.68024 154.091 8.48033C153.762 8.28042 153.336 8.17971 152.813 8.17971C152.251 8.17971 151.763 8.29845 151.347 8.53744C150.931 8.77643 150.611 9.1056 150.388 9.52496C150.166 9.94582 150.055 10.4509 150.055 11.0431H149.183V8.89517L149.18 8.89367Z" fill="currentColor"/><path d="M165.446 3.27915H161.438V0.558594H165.446V3.27915ZM165.358 18.6901H161.524V5.14146H165.358V18.6886V18.6901Z" fill="currentColor"/><path d="M171.429 8.77899H172.533L171.778 10.0386C171.972 8.8361 172.296 7.84708 172.75 7.0745C173.205 6.30193 173.772 5.71873 174.45 5.32794C175.128 4.93714 175.892 4.74023 176.744 4.74023C177.596 4.74023 178.386 4.94014 178.995 5.34146C179.605 5.74278 180.056 6.30042 180.346 7.01739C180.637 7.73285 180.782 8.57908 180.782 9.55157V18.6887H176.919V10.5827C176.919 10.1062 176.846 9.68534 176.701 9.3231C176.557 8.96086 176.323 8.67828 176.005 8.47837C175.686 8.27846 175.244 8.17776 174.683 8.17776C174.16 8.17776 173.686 8.2965 173.26 8.53549C172.833 8.77448 172.504 9.10365 172.272 9.52301C172.04 9.94387 171.923 10.4489 171.923 11.0411V18.6887H168.089V5.14155H171.836V9.95289L171.429 8.77899Z" fill="currentColor"/><path d="M182.641 11.9884C182.641 9.65866 183.062 7.864 183.905 6.60292C184.748 5.34335 185.943 4.72258 187.492 4.74061C188.44 4.72258 189.244 4.93601 189.903 5.38543C190.561 5.83485 191.093 6.47817 191.5 7.31838C191.907 8.1586 192.188 9.16115 192.343 10.326L192.169 11.557C192.169 10.5259 191.912 9.70526 191.4 9.09351C190.886 8.48326 190.174 8.17664 189.264 8.17664C188.296 8.17664 187.58 8.49228 187.115 9.12207C186.65 9.75185 186.419 10.7168 186.419 12.0155C186.419 13.2375 186.641 14.1589 187.086 14.7796C187.531 15.4004 188.257 15.71 189.264 15.71C189.865 15.71 190.383 15.5763 190.817 15.3087C191.253 15.0412 191.587 14.6699 191.819 14.1919C192.051 13.7155 192.168 13.1323 192.168 12.4454L192.313 13.4479C192.215 14.3077 192.037 15.0802 191.775 15.7671C191.513 16.4541 191.174 17.0523 190.758 17.5573C190.342 18.0638 189.857 18.4456 189.305 18.7026C188.754 18.9597 188.129 19.0889 187.432 19.0889C185.902 19.0889 184.721 18.4787 183.888 17.2552C183.056 16.0332 182.64 14.2761 182.64 11.9854L182.641 11.9884ZM192.604 9.83903H192.023L191.791 8.63658H192.634L192.605 9.83903H192.604ZM192.662 15.1389H191.819L192.081 13.9935H192.662V15.1389ZM192.168 18.6906V0.501953H196.001V18.6906H192.168Z" fill="currentColor"/></g></symbol><symbol id="mail" viewBox="0 0 32 32"><g fill="none"><path d="M5.33333 8.00008L13.4773 14.1494L13.48 14.1521C14.384 14.8147 14.836 15.1467 15.332 15.2747C15.7701 15.3881 16.2299 15.3881 16.668 15.2747C17.164 15.1467 17.6173 14.8147 18.524 14.1494C18.524 14.1494 23.7467 10.1414 26.6667 8.00008M4 21.0667V10.9334C4 9.44008 4 8.69341 4.29067 8.12275C4.54667 7.62008 4.95333 7.21341 5.456 6.95741C6.02667 6.66675 6.77333 6.66675 8.26667 6.66675H23.7333C25.2267 6.66675 25.9733 6.66675 26.5427 6.95741C27.0453 7.21341 27.4533 7.62008 27.7093 8.12275C28 8.69208 28 9.43875 28 10.9294V21.0721C28 22.5627 28 23.3067 27.7093 23.8774C27.4532 24.3793 27.0448 24.7872 26.5427 25.0427C25.9733 25.3334 25.228 25.3334 23.7373 25.3334H8.26267C6.772 25.3334 6.02533 25.3334 5.456 25.0427C4.95426 24.7871 4.54633 24.3792 4.29067 23.8774C4 23.3067 4 22.5601 4 21.0667Z" stroke="white" stroke-width="2" stroke-linecap="round" stroke-linejoin="round"/></g></symbol><symbol id="nav-clients" viewBox="0 0 24 25"><g fill="none"><path d="M21 20.9824C21 19.2404 19.33 17.7594 17 17.2094M15 20.9824C15 18.7724 12.314 16.9824 9 16.9824C5.686 16.9824 3 18.7724 3 20.9824M15 13.9824C16.0609 13.9824 17.0783 13.561 17.8284 12.8108C18.5786 12.0607 19 11.0433 19 9.98242C19 8.92156 18.5786 7.90414 17.8284 7.15399C17.0783 6.40385 16.0609 5.98242 15 5.98242M9 13.9824C7.93913 13.9824 6.92172 13.561 6.17157 12.8108C5.42143 12.0607 5 11.0433 5 9.98242C5 8.92156 5.42143 7.90414 6.17157 7.15399C6.92172 6.40385 7.93913 5.98242 9 5.98242C10.0609 5.98242 11.0783 6.40385 11.8284 7.15399C12.5786 7.90414 13 8.92156 13 9.98242C13 11.0433 12.5786 12.0607 11.8284 12.8108C11.0783 13.561 10.0609 13.9824 9 13.9824Z" stroke="currentColor" stroke-width="2" stroke-linecap="round" stroke-linejoin="round"/></g></symbol><symbol id="nav-docs" viewBox="0 0 24 25"><g fill="none"><path d="M9 20.9805C9 21.2457 9.10536 21.5 9.29289 21.6876C9.48043 21.8751 9.73478 21.9805 10 21.9805H14C14.2652 21.9805 14.5196 21.8751 14.7071 21.6876C14.8946 21.5 15 21.2457 15 20.9805V15.9805H20C20.2652 15.9805 20.5196 15.8751 20.7071 15.6876C20.8946 15.5 21 15.2457 21 14.9805V10.9805C21 10.7153 20.8946 10.4609 20.7071 10.2734C20.5196 10.0858 20.2652 9.98047 20 9.98047H15V4.98047C15 4.71525 14.8946 4.4609 14.7071 4.27336C14.5196 4.08583 14.2652 3.98047 14 3.98047H10C9.73478 3.98047 9.48043 4.08583 9.29289 4.27336C9.10536 4.4609 9 4.71525 9 4.98047V9.98047H4C3.73478 9.98047 3.48043 10.0858 3.29289 10.2734C3.10536 10.4609 3 10.7153 3 10.9805V14.9805C3 15.2457 3.10536 15.5 3.29289 15.6876C3.48043 15.8751 3.73478 15.9805 4 15.9805H9V20.9805Z" stroke="white" stroke-width="2" stroke-linecap="round" stroke-linejoin="round"/></g></symbol><symbol id="nav-help" viewBox="0 0 24 25"><g fill="none"><path d="M9.146 10.0559C9.3162 9.52917 9.62892 9.05982 10.0495 8.69989C10.4701 8.33995 10.9821 8.1035 11.5289 8.01673C12.0756 7.92995 12.6357 7.99625 13.147 8.20827C13.6584 8.42029 14.1011 8.76975 14.426 9.21793C14.7513 9.66546 14.9466 10.1942 14.9901 10.7458C15.0337 11.2974 14.9238 11.8503 14.6727 12.3433C14.4217 12.8363 14.0391 13.2503 13.5675 13.5395C13.0958 13.8287 12.5533 13.9818 12 13.9819V14.9819M12 21.9819C10.8181 21.9819 9.64778 21.7491 8.55585 21.2969C7.46392 20.8446 6.47177 20.1816 5.63604 19.3459C4.80031 18.5102 4.13738 17.518 3.68508 16.4261C3.23279 15.3342 3 14.1638 3 12.9819C3 11.8 3.23279 10.6297 3.68508 9.53778C4.13738 8.44585 4.80031 7.4537 5.63604 6.61797C6.47177 5.78225 7.46392 5.11931 8.55585 4.66702C9.64778 4.21473 10.8181 3.98193 12 3.98193C14.3869 3.98193 16.6761 4.93015 18.364 6.61797C20.0518 8.3058 21 10.595 21 12.9819C21 15.3689 20.0518 17.6581 18.364 19.3459C16.6761 21.0337 14.3869 21.9819 12 21.9819ZM12.05 17.9819V18.0819H11.95V17.9819H12.05Z" stroke="currentColor" stroke-width="2" stroke-linecap="round" stroke-linejoin="round"/></g></symbol><symbol id="nav-home" viewBox="0 0 24 25"><g fill="none"><path d="M20 17.9792V12.4312C20 11.8972 20 11.6302 19.935 11.3812C19.8775 11.1611 19.7828 10.9524 19.655 10.7642C19.51 10.5512 19.31 10.3742 18.907 10.0232L14.107 5.82322C13.361 5.17022 12.987 4.84322 12.567 4.71922C12.197 4.60922 11.803 4.60922 11.432 4.71922C11.012 4.84322 10.64 5.16922 9.894 5.82122L5.093 10.0232C4.691 10.3752 4.49 10.5512 4.346 10.7632C4.2178 10.9517 4.12276 11.1607 4.065 11.3812C4 11.6292 4 11.8972 4 12.4312V17.9792C4 18.9112 4 19.3772 4.152 19.7442C4.2524 19.9869 4.39963 20.2075 4.58528 20.3933C4.77093 20.5792 4.99137 20.7266 5.234 20.8272C5.602 20.9792 6.068 20.9792 7 20.9792C7.932 20.9792 8.398 20.9792 8.766 20.8272C9.00863 20.7266 9.22907 20.5792 9.41472 20.3933C9.60037 20.2075 9.7476 19.9869 9.848 19.7442C10 19.3772 10 18.9112 10 17.9792V16.9792C10 16.4488 10.2107 15.9401 10.5858 15.565C10.9609 15.1899 11.4696 14.9792 12 14.9792C12.5304 14.9792 13.0391 15.1899 13.4142 15.565C13.7893 15.9401 14 16.4488 14 16.9792V17.9792C14 18.9112 14 19.3772 14.152 19.7442C14.2524 19.9869 14.3996 20.2075 14.5853 20.3933C14.7709 20.5792 14.9914 20.7266 15.234 20.8272C15.602 20.9792 16.068 20.9792 17 20.9792C17.932 20.9792 18.398 20.9792 18.766 20.8272C19.0086 20.7266 19.2291 20.5792 19.4147 20.3933C19.6004 20.2075 19.7476 19.9869 19.848 19.7442C20 19.3772 20 18.9112 20 17.9792Z" stroke="white" stroke-width="2" stroke-linecap="round" stroke-linejoin="round"/></g></symbol><symbol id="nav-language" viewBox="0 0 24 25"><g fill="none"><path d="M13 19.9824L16.5 10.9824L20 19.9824M13.875 17.9824H19.125M3 7.98242H10M10 7.98242H12M10 7.98242C10 9.61242 9.207 11.9084 7.761 13.6374M7.761 13.6374C6.79 14.8024 5.521 15.7074 4 15.9824M7.761 13.6374L5 10.9824M7.761 13.6374L10.2 15.9824M7.5 7.80042V5.98242" stroke="currentColor" stroke-width="2" stroke-linecap="round" stroke-linejoin="round"/></g></symbol><symbol id="nav-logout" viewBox="0 0 24 25"><g fill="none"><path d="M12 15.9819L15 12.9819M15 12.9819L12 9.98193M15 12.9819H4M9 8.23093V8.18193C9 7.06193 9 6.50193 9.218 6.07393C9.41 5.69693 9.715 5.39193 10.092 5.19993C10.52 4.98193 11.08 4.98193 12.2 4.98193H16.8C17.92 4.98193 18.48 4.98193 18.907 5.19993C19.284 5.39193 19.59 5.69693 19.782 6.07393C20 6.50093 20 7.06093 20 8.17893V17.7859C20 18.9039 20 19.4629 19.782 19.8899C19.59 20.2664 19.2837 20.5724 18.907 20.7639C18.48 20.9819 17.921 20.9819 16.803 20.9819H12.197C11.079 20.9819 10.519 20.9819 10.092 20.7639C9.71569 20.5722 9.40974 20.2662 9.218 19.8899C9 19.4619 9 18.9019 9 17.7819V17.7319" stroke="currentColor" stroke-width="2" stroke-linecap="round" stroke-linejoin="round"/></g></symbol><symbol id="nav-main" viewBox="0 0 24 25"><g fill="none"><path d="M20 17.9819V12.4339C20 11.8999 20 11.6329 19.935 11.3839C19.8775 11.1638 19.7828 10.9551 19.655 10.7669C19.51 10.5539 19.31 10.3769 18.907 10.0259L14.107 5.8259C13.361 5.1729 12.987 4.8459 12.567 4.7219C12.197 4.6119 11.803 4.6119 11.432 4.7219C11.012 4.8459 10.64 5.1719 9.894 5.8239L5.093 10.0259C4.691 10.3779 4.49 10.5539 4.346 10.7659C4.2178 10.9544 4.12276 11.1634 4.065 11.3839C4 11.6319 4 11.8999 4 12.4339V17.9819C4 18.9139 4 19.3799 4.152 19.7469C4.2524 19.9896 4.39963 20.2102 4.58528 20.396C4.77093 20.5819 4.99137 20.7293 5.234 20.8299C5.602 20.9819 6.068 20.9819 7 20.9819C7.932 20.9819 8.398 20.9819 8.766 20.8299C9.00863 20.7293 9.22907 20.5819 9.41472 20.396C9.60037 20.2102 9.7476 19.9896 9.848 19.7469C10 19.3799 10 18.9139 10 17.9819V16.9819C10 16.4515 10.2107 15.9428 10.5858 15.5677C10.9609 15.1926 11.4696 14.9819 12 14.9819C12.5304 14.9819 13.0391 15.1926 13.4142 15.5677C13.7893 15.9428 14 16.4515 14 16.9819V17.9819C14 18.9139 14 19.3799 14.152 19.7469C14.2524 19.9896 14.3996 20.2102 14.5853 20.396C14.7709 20.5819 14.9914 20.7293 15.234 20.8299C15.602 20.9819 16.068 20.9819 17 20.9819C17.932 20.9819 18.398 20.9819 18.766 20.8299C19.0086 20.7293 19.2291 20.5819 19.4147 20.396C19.6004 20.2102 19.7476 19.9896 19.848 19.7469C20 19.3799 20 18.9139 20 17.9819Z" stroke="currentColor" stroke-width="2" stroke-linecap="round" stroke-linejoin="round"/></g></symbol><symbol id="nav-payment" viewBox="0 0 24 25"><g fill="none"><path d="M3 11.9819V16.7819C3 17.9019 3 18.4619 3.218 18.8899C3.40974 19.2662 3.71569 19.5722 4.092 19.7639C4.519 19.9819 5.079 19.9819 6.197 19.9819H17.803C18.921 19.9819 19.48 19.9819 19.907 19.7639C20.284 19.5719 20.59 19.2659 20.782 18.8899C21 18.4619 21 17.9039 21 16.7859V11.9819M3 11.9819V9.98193M3 11.9819H21M21 11.9819V9.98193M3 9.98193V9.18193C3 8.06193 3 7.50193 3.218 7.07393C3.41 6.69693 3.715 6.39193 4.092 6.19993C4.52 5.98193 5.08 5.98193 6.2 5.98193H17.8C18.92 5.98193 19.48 5.98193 19.907 6.19993C20.284 6.39193 20.59 6.69693 20.782 7.07393C21 7.50093 21 8.06093 21 9.17893V9.98193M3 9.98193H21M7 15.9819H11" stroke="currentColor" stroke-width="2" stroke-linecap="round" stroke-linejoin="round"/></g></symbol><symbol id="nav-schedule" viewBox="0 0 24 25"><g fill="none"><path d="M8 4.98242H7.2C6.08 4.98242 5.52 4.98242 5.092 5.20042C4.71565 5.39211 4.40969 5.69807 4.218 6.07442C4 6.50242 4 7.06242 4 8.18242V8.98242M8 4.98242H16M8 4.98242V2.98242M4 8.98242V17.7824C4 18.9024 4 19.4624 4.218 19.8904C4.40974 20.2667 4.71569 20.5727 5.092 20.7644C5.519 20.9824 6.079 20.9824 7.197 20.9824H16.803C17.921 20.9824 18.48 20.9824 18.907 20.7644C19.284 20.5724 19.59 20.2664 19.782 19.8904C20 19.4624 20 18.9044 20 17.7864V8.98242M4 8.98242H20M16 4.98242H16.8C17.92 4.98242 18.48 4.98242 18.907 5.20042C19.284 5.39242 19.59 5.69742 19.782 6.07442C20 6.50142 20 7.06142 20 8.17942V8.98242M16 4.98242V2.98242M16 16.9824H16.002V16.9844H16V16.9824ZM12 16.9824H12.002V16.9844H12V16.9824ZM8 16.9824H8.002V16.9844H8V16.9824ZM16.002 12.9824V12.9844H16V12.9824H16.002ZM12 12.9824H12.002V12.9844H12V12.9824ZM8 12.9824H8.002V12.9844H8V12.9824Z" stroke="currentColor" stroke-width="2" stroke-linecap="round" stroke-linejoin="round"/></g></symbol><symbol id="nav-sessions" viewBox="0 0 24 25"><g fill="none"><path d="M15 20.9814H9M4 14.7814V9.18145C4 8.06145 4 7.50145 4.218 7.07345C4.41 6.69645 4.715 6.39145 5.092 6.19945C5.52 5.98145 6.08 5.98145 7.2 5.98145H16.8C17.92 5.98145 18.48 5.98145 18.907 6.19945C19.284 6.39145 19.59 6.69645 19.782 7.07345C20 7.50045 20 8.06044 20 9.17844V14.7844C20 15.9024 20 16.4614 19.782 16.8884C19.5902 17.2653 19.2838 17.5716 18.907 17.7634C18.48 17.9814 17.921 17.9814 16.803 17.9814H7.197C6.079 17.9814 5.519 17.9814 5.092 17.7634C4.71554 17.5714 4.40957 17.2651 4.218 16.8884C4 16.4614 4 15.9014 4 14.7814ZM14.5 11.9814L10 8.98145V14.9814L14.5 11.9814Z" stroke="currentColor" stroke-width="2" stroke-linecap="round" stroke-linejoin="round"/></g></symbol><symbol id="nav-settings" viewBox="0 0 25 25"><g fill="none"><path d="M17.217 20.3139C16.5612 19.5792 15.7572 18.9915 14.8581 18.5896C13.9589 18.1877 12.9849 17.9806 12 17.9819C9.927 17.9819 8.065 18.8819 6.783 20.3139M12 21.9819C10.8181 21.9819 9.64778 21.7491 8.55585 21.2969C7.46392 20.8446 6.47177 20.1816 5.63604 19.3459C4.80031 18.5102 4.13738 17.518 3.68508 16.4261C3.23279 15.3342 3 14.1638 3 12.9819C3 11.8 3.23279 10.6297 3.68508 9.53778C4.13738 8.44585 4.80031 7.4537 5.63604 6.61797C6.47177 5.78225 7.46392 5.11931 8.55585 4.66702C9.64778 4.21473 10.8181 3.98193 12 3.98193C14.3869 3.98193 16.6761 4.93015 18.364 6.61797C20.0518 8.3058 21 10.595 21 12.9819C21 15.3689 20.0518 17.6581 18.364 19.3459C16.6761 21.0337 14.3869 21.9819 12 21.9819ZM12 14.9819C11.606 14.9819 11.2159 14.9043 10.8519 14.7536C10.488 14.6028 10.1573 14.3818 9.87868 14.1033C9.6001 13.8247 9.37913 13.494 9.22836 13.13C9.0776 12.766 9 12.3759 9 11.9819C9 11.588 9.0776 11.1979 9.22836 10.8339C9.37913 10.4699 9.6001 10.1392 9.87868 9.86061C10.1573 9.58204 10.488 9.36106 10.8519 9.21029C11.2159 9.05953 11.606 8.98193 12 8.98193C12.7956 8.98193 13.5587 9.298 14.1213 9.86061C14.6839 10.4232 15 11.1863 15 11.9819C15 12.7776 14.6839 13.5406 14.1213 14.1033C13.5587 14.6659 12.7956 14.9819 12 14.9819Z" stroke="currentColor" stroke-width="2" stroke-linecap="round" stroke-linejoin="round"/><path d="M22.3266 18.0716L22.1589 17.9781L22.1071 17.9488C21.9821 17.8738 21.8769 17.7701 21.8 17.6463C21.7918 17.6339 21.7844 17.6206 21.7698 17.595C21.6709 17.4363 21.623 17.2513 21.6323 17.0647L21.635 16.8699C21.6405 16.5582 21.6433 16.4015 21.5993 16.2612C21.5603 16.1364 21.4952 16.0214 21.4081 15.9239C21.31 15.8139 21.1739 15.735 20.9012 15.5783L20.6748 15.4477C20.4035 15.2914 20.2673 15.213 20.123 15.1832C19.9954 15.1568 19.8637 15.1579 19.7366 15.1864C19.5931 15.2185 19.4588 15.2992 19.1907 15.4596L19.1893 15.4605L19.0271 15.5572C19.0014 15.5728 18.9881 15.5801 18.9753 15.5875C18.8479 15.6585 18.7058 15.6975 18.5596 15.702C18.5449 15.703 18.5298 15.703 18.5 15.703L18.4404 15.7025C18.2942 15.6978 18.1512 15.6582 18.0233 15.587C18.0105 15.5801 17.9981 15.5723 17.9725 15.5567L17.8088 15.4587C17.5389 15.2964 17.4037 15.2157 17.2593 15.1832C17.1317 15.1547 16.9995 15.1537 16.8715 15.1805C16.7267 15.2107 16.591 15.2895 16.3193 15.4472L16.3179 15.4477L16.0942 15.5774L16.0919 15.5792C15.8224 15.735 15.6872 15.8139 15.59 15.9234C15.5035 16.0208 15.4386 16.1355 15.3998 16.2598C15.3563 16.4005 15.3586 16.5573 15.3641 16.8708L15.3673 17.0651C15.3673 17.0949 15.3687 17.1096 15.3682 17.1238C15.3658 17.2903 15.3181 17.453 15.2303 17.5945C15.2151 17.6202 15.2083 17.633 15.2005 17.6449C15.1232 17.7697 15.0171 17.874 14.8911 17.9492L14.8398 17.9781L14.6743 18.0698C14.3984 18.2224 14.2604 18.299 14.1605 18.408C14.0717 18.5042 14.0045 18.6183 13.9634 18.7426C13.9176 18.8833 13.9176 19.0405 13.918 19.3559L13.919 19.6139C13.9194 19.927 13.9203 20.0832 13.9666 20.223C14.0075 20.3466 14.0742 20.46 14.1623 20.5558C14.2623 20.664 14.3988 20.74 14.6725 20.8922L14.8365 20.9834C14.8645 20.999 14.8787 21.0063 14.892 21.0146C15.0356 21.1007 15.1529 21.2245 15.2312 21.3725L15.2619 21.4275C15.3393 21.5737 15.3757 21.7381 15.3673 21.9033L15.3641 22.0898C15.3586 22.4042 15.3563 22.5619 15.4003 22.7026C15.4393 22.8273 15.5043 22.9423 15.5914 23.04C15.6895 23.15 15.8261 23.2283 16.0983 23.3855L16.3248 23.5162C16.5965 23.6725 16.7322 23.7508 16.8766 23.7806C17.0041 23.807 17.1359 23.8059 17.263 23.7774C17.4069 23.7453 17.5412 23.6647 17.8102 23.5033L17.9725 23.4062L18.0243 23.3759C18.1517 23.3053 18.2938 23.2659 18.44 23.2613L18.4995 23.2609H18.5591C18.7049 23.2655 18.8479 23.3053 18.9762 23.3764L19.0184 23.4016L19.1907 23.5052C19.4611 23.6674 19.5959 23.7481 19.7403 23.7802C19.8678 23.809 20 23.8103 20.128 23.7838C20.2724 23.7536 20.409 23.6743 20.6808 23.5166L20.9076 23.3851C21.1771 23.2283 21.3123 23.15 21.4095 23.0404C21.4966 22.9428 21.5608 22.8282 21.5997 22.704C21.6433 22.5642 21.641 22.4088 21.6355 22.0999L21.6318 21.8982V21.84C21.634 21.6734 21.6815 21.5105 21.7693 21.3689L21.7991 21.3185C21.8764 21.1937 21.9825 21.0893 22.1085 21.0141L22.1589 20.9862L22.1598 20.9857L22.3253 20.894C22.6012 20.741 22.7391 20.6649 22.8395 20.5558C22.9284 20.4595 22.9953 20.345 23.0361 20.2212C23.082 20.0814 23.082 19.9247 23.081 19.613L23.0801 19.3499C23.0797 19.0369 23.0792 18.8801 23.0329 18.7403C22.9919 18.6169 22.925 18.5036 22.8368 18.408C22.7373 18.2999 22.6007 18.2238 22.3275 18.0721L22.3266 18.0716Z" fill="white" stroke="currentColor" stroke-width="2" stroke-linecap="round" stroke-linejoin="round"/><path d="M16.666 19.4819C16.666 19.9681 16.8592 20.4344 17.203 20.7783C17.5468 21.1221 18.0131 21.3152 18.4993 21.3152C18.9856 21.3152 19.4519 21.1221 19.7957 20.7783C20.1395 20.4344 20.3327 19.9681 20.3327 19.4819C20.3327 18.9957 20.1395 18.5293 19.7957 18.1855C19.4519 17.8417 18.9856 17.6486 18.4993 17.6486C18.0131 17.6486 17.5468 17.8417 17.203 18.1855C16.8592 18.5293 16.666 18.9957 16.666 19.4819Z" fill="currentColor"/></g></symbol><symbol id="notes" viewBox="0 0 32 32"><g fill="none"><path d="M8.00016 14.6667V8.26667C8.00016 6.77333 8.00016 6.02667 8.29083 5.456C8.54683 4.95333 8.9535 4.54667 9.45616 4.29067C10.0268 4 10.7735 4 12.2668 4H18.6668M18.6668 4C19.0482 4.00267 19.2882 4.01867 19.5188 4.07333C19.7909 4.13888 20.051 4.24687 20.2895 4.39333C20.5575 4.55733 20.7895 4.78933 21.2508 5.25067L25.4175 9.41733C25.8788 9.87867 26.1082 10.108 26.2722 10.3773C26.4187 10.6158 26.5267 10.8759 26.5922 11.148C26.6482 11.3787 26.6615 11.62 26.6668 12M18.6668 4V7.73333C18.6668 9.22667 18.6668 9.97333 18.9575 10.544C19.2132 11.0457 19.6211 11.4537 20.1228 11.7093C20.6922 12 21.4388 12 22.9295 12H26.6668M26.6668 12V23.7387C26.6668 25.2293 26.6668 25.9747 26.3762 26.544C26.1204 27.0456 25.7125 27.4535 25.2108 27.7093C24.6402 28 23.8935 28 22.4042 28H17.3335M12.0002 18.6667L14.6668 21.3333M5.3335 28V24.6667L15.3335 14.6667L18.6668 18L8.66683 28H5.3335Z" stroke="#039C69" stroke-width="2" stroke-linecap="round" stroke-linejoin="round"/></g></symbol><symbol id="success" viewBox="0 0 36 36"><g fill="none"><rect width="36" height="36" rx="18" fill="#00AC73"/><path d="M8.375 19.8958L14.5625 26.25L26.9375 11" stroke="white" stroke-width="6" stroke-linecap="round" stroke-linejoin="round"/></g></symbol><symbol id="swiper-arrow" viewBox="0 0 30 64"><g fill="none"><path d="M23.7036 5.33337L5.92584 32L23.7036 58.6667" stroke="#EAEAEA" stroke-width="8" stroke-linecap="round" stroke-linejoin="round"/></g></symbol><symbol id="tooltip" viewBox="0 0 24 17"><g fill="none"><path d="M24 0.5V16.5L0 8.5L24 0.5Z" fill="#A3A3A3"/></g></symbol><symbol id="video" viewBox="0 0 60 45"><g fill="none"><rect x="0.5" y="2.21875" width="46.0938" height="40.5625" rx="10" fill="#A3A3A3"/><path d="M59.5 12.4375C59.5 11.8852 59.0508 11.4328 58.5007 11.482C52.8593 11.9871 48.4375 16.7272 48.4375 22.5C48.4375 28.2728 52.8593 33.0129 58.5007 33.518C59.0508 33.5672 59.5 33.1148 59.5 32.5625V12.4375Z" fill="#A3A3A3"/></g></symbol></svg>