<svg width="24" height="24" viewBox="0 0 24 24" fill="none" xmlns="http://www.w3.org/2000/svg">
<path d="M9 6H9.337C9.581 6 9.704 6 9.819 6.028C9.921 6.052 10.019 6.093 10.109 6.148C10.209 6.209 10.296 6.296 10.469 6.468L13.532 9.531C13.704 9.704 13.79 9.791 13.852 9.891C13.907 9.981 13.948 10.079 13.972 10.181C14 10.295 14 10.416 14 10.655V18M9 6H4.6C4.04 6 3.76 6 3.546 6.109C3.35785 6.20487 3.20487 6.35785 3.109 6.546C3 6.76 3 7.04 3 7.6V19.4C3 19.96 3 20.24 3.109 20.454C3.20487 20.6422 3.35785 20.7951 3.546 20.891C3.76 21 4.039 21 4.598 21H12.401C12.96 21 13.241 21 13.454 20.891C13.6422 20.7952 13.7952 20.6422 13.891 20.454C14 20.24 14 19.96 14 19.4V18M9 6V9.4C9 9.96 9 10.24 9.109 10.454C9.20487 10.6422 9.35785 10.7951 9.546 10.891C9.76 11 10.039 11 10.598 11H14M14 18H19.402C19.96 18 20.24 18 20.455 17.891C20.6425 17.7949 20.7948 17.6419 20.89 17.454C21 17.24 21 16.96 21 16.4V7.655C21 7.416 21 7.295 20.972 7.181C20.948 7.079 20.907 6.981 20.852 6.891C20.79 6.791 20.704 6.704 20.532 6.531L17.469 3.468C17.296 3.296 17.209 3.209 17.109 3.148C17.019 3.093 16.921 3.052 16.819 3.028C16.704 3 16.581 3 16.337 3H16M10 6V4.6C10 4.04 10 3.76 10.109 3.546C10.2049 3.35785 10.3578 3.20487 10.546 3.109C10.76 3 11.04 3 11.6 3H16M16 3V6.4C16 6.96 16 7.24 16.109 7.454C16.2049 7.64215 16.3578 7.79513 16.546 7.891C16.76 8 17.039 8 17.598 8H21" stroke="#555555" stroke-width="2" stroke-linecap="round" stroke-linejoin="round"/>
</svg>
