<svg width="72" height="73" viewBox="0 0 72 73" fill="none" xmlns="http://www.w3.org/2000/svg">
<rect width="72" height="72.9819" rx="36" fill="#00AC73"/>
<path d="M16.6576 27.543C15.614 27.543 14.7888 27.4093 14.1822 27.1419C13.5756 26.8744 13.1321 26.5059 12.8516 26.0363C12.5712 25.5667 12.3853 25.0579 12.2939 24.51L14.6812 24.0208C14.7725 24.36 14.8997 24.6502 15.0628 24.8916C15.2259 25.1329 15.4411 25.3155 15.7085 25.4395C15.976 25.5634 16.3054 25.6254 16.6967 25.6254C17.1533 25.6254 17.4925 25.5503 17.7142 25.4003C17.936 25.2503 18.0534 25.0318 18.0665 24.7448C18.0665 24.5491 18.011 24.3861 17.9001 24.2556C17.7893 24.1252 17.5838 23.998 17.2838 23.874C16.9837 23.7501 16.5597 23.636 16.0118 23.5316C15.1509 23.349 14.4692 23.1305 13.967 22.8761C13.4648 22.6217 13.106 22.3021 12.8908 21.9172C12.6755 21.5324 12.5679 21.0921 12.5679 20.5964C12.5679 19.7093 12.8875 19.0114 13.5267 18.5026C14.1659 17.9939 15.1313 17.7395 16.4228 17.7395C17.3229 17.7395 18.0436 17.8569 18.585 18.0917C19.1264 18.3265 19.5406 18.6461 19.8276 19.0505C20.1146 19.455 20.3103 19.9376 20.4146 20.4986L18.0078 21.0269C17.9034 20.5312 17.7273 20.1692 17.4794 19.9409C17.2316 19.7126 16.8663 19.5984 16.3836 19.5984C15.9662 19.5984 15.6466 19.6702 15.4248 19.8137C15.203 19.9572 15.0922 20.1724 15.0922 20.4594C15.0922 20.629 15.1411 20.7856 15.2389 20.9291C15.3367 21.0726 15.5292 21.203 15.8162 21.3204C16.1032 21.4378 16.5402 21.5552 17.1272 21.6726C18.0534 21.8553 18.7677 22.0868 19.2699 22.3673C19.7721 22.6478 20.1244 22.9772 20.3266 23.3555C20.5288 23.7338 20.6299 24.1512 20.6299 24.6078C20.6299 25.221 20.4896 25.746 20.2092 26.183C19.9287 26.6201 19.4949 26.956 18.9079 27.1908C18.3209 27.4256 17.5707 27.543 16.6576 27.543Z" fill="white"/>
<path d="M29.9246 19.0114C29.3637 18.1635 28.5484 17.7395 27.4787 17.7395C26.8525 17.7395 26.3144 17.8797 25.8643 18.1602C25.4142 18.4407 25.0457 18.8581 24.7587 19.4126C24.6033 19.7137 24.4739 20.0561 24.3717 20.4399H24.2891V18.0135H21.667V30.0868H24.2891V24.7839H24.3684C24.4185 24.9916 24.4772 25.1873 24.5435 25.371C24.7131 25.8406 24.9348 26.2385 25.2088 26.5646C25.4827 26.8907 25.8023 27.1353 26.1676 27.2984C26.5329 27.4615 26.9568 27.543 27.4395 27.543C28.5092 27.543 29.3311 27.1158 29.9051 26.2613C30.4791 25.4068 30.7661 24.1904 30.7661 22.6119C30.7661 21.0334 30.4856 19.8594 29.9246 19.0114ZM27.7232 24.5491C27.4167 24.9927 26.9242 25.2144 26.2459 25.2144C25.8545 25.2144 25.5121 25.1133 25.2186 24.9111C24.925 24.7089 24.6968 24.435 24.5337 24.0893C24.3706 23.7436 24.2891 23.3359 24.2891 22.8663V22.4358C24.2891 21.9401 24.3706 21.5226 24.5337 21.1834C24.6968 20.8443 24.925 20.5801 25.2186 20.3909C25.5121 20.2018 25.8545 20.1072 26.2459 20.1072C26.9242 20.1072 27.4167 20.3192 27.7232 20.7432C28.0298 21.1671 28.1831 21.7966 28.1831 22.6315C28.1831 23.4664 28.0298 24.1056 27.7232 24.5491Z" fill="white"/>
<path d="M39.9622 19.7941C39.6491 19.1549 39.1795 18.6527 38.5533 18.2874C37.9272 17.9221 37.1379 17.7395 36.1856 17.7395C35.1811 17.7395 34.3234 17.9417 33.6124 18.3461C32.9015 18.7505 32.3634 19.3278 31.9981 20.0779C31.6328 20.828 31.4502 21.7444 31.4502 22.8271C31.4502 23.9099 31.6491 24.722 32.047 25.4199C32.4449 26.1178 32.9961 26.6429 33.7005 26.9951C34.4049 27.3473 35.2203 27.5234 36.1465 27.5234C37.0205 27.5234 37.738 27.3995 38.299 27.1516C38.8599 26.9038 39.3002 26.5614 39.6198 26.1243C39.9394 25.6873 40.184 25.1883 40.3536 24.6274L38.0837 24.0012C38.0185 24.236 37.9174 24.4578 37.7804 24.6665C37.6434 24.8753 37.4445 25.0416 37.1836 25.1655C36.9227 25.2894 36.59 25.3514 36.1856 25.3514C35.4551 25.3514 34.9104 25.1329 34.5517 24.6959C34.2865 24.373 34.1201 23.9132 34.0505 23.3163H40.3927C40.4058 23.0424 40.4155 22.8076 40.4221 22.6119C40.4286 22.4162 40.4319 22.2205 40.4319 22.0249C40.4319 21.1769 40.2753 20.4333 39.9622 19.7941ZM34.0571 21.8488C34.1266 21.2541 34.2854 20.8008 34.5321 20.4888C34.8778 20.0518 35.4094 19.8333 36.1269 19.8333C36.8053 19.8333 37.2977 20.0387 37.6043 20.4497C37.8467 20.7747 37.9859 21.2411 38.0196 21.8488H34.0571Z" fill="white"/>
<path d="M49.1597 19.4615C48.8857 18.9136 48.4617 18.4961 47.8877 18.2091C47.3138 17.9221 46.5506 17.7786 45.5983 17.7786C44.6982 17.7786 43.9513 17.9091 43.3578 18.17C42.7642 18.4309 42.3142 18.7994 42.0076 19.2756C41.701 19.7517 41.5021 20.2964 41.4108 20.9095L43.8959 21.34C43.9611 20.8312 44.1307 20.4627 44.4047 20.2344C44.6786 20.0061 45.0439 19.892 45.5005 19.892C46.0223 19.892 46.3941 20.0289 46.6158 20.3029C46.8376 20.5768 46.9485 20.9617 46.9485 21.4574V21.9466H44.5025C43.2893 21.9466 42.4153 22.214 41.8804 22.7489C41.3455 23.2837 41.0781 23.9621 41.0781 24.7839C41.0781 25.3971 41.2021 25.9026 41.4499 26.3004C41.6978 26.6983 42.0304 26.9918 42.4479 27.181C42.8653 27.3701 43.335 27.4647 43.8568 27.4647C44.5351 27.4647 45.1026 27.318 45.5592 27.0244C46.0158 26.7309 46.3745 26.307 46.6354 25.7525C46.7441 25.521 46.8343 25.2709 46.9072 24.9992H47.0072V27.269H49.5706V21.4378C49.5706 20.6681 49.4336 20.0094 49.1597 19.4615ZM46.0386 25.1949C45.7451 25.3514 45.3961 25.4297 44.9917 25.4297C44.6525 25.4297 44.3818 25.3775 44.1796 25.2731C43.9774 25.1688 43.8307 25.035 43.7394 24.872C43.648 24.7089 43.6024 24.5426 43.6024 24.373C43.6024 24.0599 43.723 23.8218 43.9644 23.6588C44.2057 23.4957 44.5416 23.4142 44.9721 23.4142H46.9485V23.7077C46.9485 24.0338 46.8702 24.3241 46.7137 24.5785C46.5571 24.8328 46.3321 25.0383 46.0386 25.1949Z" fill="white"/>
<path d="M60.0001 27.1517V27.2691H56.9671L54.0754 23.5316H53.6797V27.2691H51.0576V15H53.6797V21.6335H54.1189L56.8106 18.0135H59.8045V18.1309L56.1844 22.5325L60.0001 27.1517Z" fill="white"/>
<path d="M21.6274 33.2133L17.9878 42.469C17.6877 43.2386 17.3518 43.8615 16.98 44.3377C16.6082 44.8138 16.1451 45.1628 15.5907 45.3846C15.0363 45.6063 14.3808 45.7172 13.6241 45.7172C13.311 45.7172 13.0404 45.7042 12.8121 45.6781C12.5838 45.652 12.3522 45.6194 12.1174 45.5802L12.4696 43.3691C12.6653 43.4082 12.8642 43.4408 13.0664 43.4669C13.2687 43.493 13.4676 43.5061 13.6633 43.5061C14.0416 43.5061 14.3579 43.4604 14.6123 43.3691C14.8667 43.2778 15.0819 43.0984 15.2581 42.831C15.3418 42.7027 15.4276 42.5429 15.5124 42.3505L12 33.2133H14.8765L15.9136 36.6377C16.031 37.0421 16.1582 37.4661 16.2951 37.9096C16.4321 38.3532 16.5626 38.8032 16.6865 39.2598C16.7354 39.4381 16.7833 39.6142 16.8322 39.7882H17.0616C17.217 39.2816 17.3583 38.7826 17.4888 38.2912C17.6388 37.7237 17.779 37.1856 17.9095 36.6769L18.8488 33.2133H21.6274Z" fill="white"/>
<path d="M26.1476 42.7625C25.1431 42.7625 24.2854 42.5635 23.5744 42.1657C22.8635 41.7678 22.3188 41.2003 21.9405 40.4633C21.5622 39.7262 21.373 38.8554 21.373 37.851C21.373 36.8465 21.5655 35.9398 21.9503 35.2093C22.3351 34.4788 22.8863 33.9211 23.6038 33.5362C24.3213 33.1514 25.1692 32.959 26.1476 32.959C27.126 32.959 27.9511 33.1514 28.6621 33.5362C29.373 33.9211 29.9275 34.4788 30.3253 35.2093C30.7232 35.9398 30.9222 36.8204 30.9222 37.851C30.9222 39.3772 30.4982 40.5774 29.6503 41.4514C28.8023 42.3255 27.6348 42.7625 26.1476 42.7625ZM26.128 35.268C25.4106 35.268 24.8724 35.4963 24.5137 35.9529C24.1549 36.4095 23.9756 37.0356 23.9756 37.8314C23.9756 38.3662 24.0506 38.8293 24.2006 39.2207C24.3506 39.6121 24.5887 39.9121 24.9148 40.1208C25.241 40.3296 25.6454 40.4339 26.128 40.4339C26.8586 40.4339 27.4065 40.2024 27.7717 39.7393C28.137 39.2761 28.3196 38.6402 28.3196 37.8314C28.3196 37.2965 28.2381 36.8399 28.075 36.4616C27.912 36.0833 27.6674 35.7898 27.3412 35.5811C27.0151 35.3724 26.6107 35.268 26.128 35.268Z" fill="white"/>
<path d="M40.5101 33.2329V42.4885H37.9272V39.9643H37.8152C37.6989 40.4469 37.5434 40.8644 37.3499 41.2166C37.0564 41.7515 36.6879 42.1428 36.2443 42.3907C35.8008 42.6385 35.292 42.7625 34.7181 42.7625C34.0919 42.7625 33.5733 42.6222 33.1624 42.3418C32.7515 42.0613 32.4482 41.6764 32.2525 41.1873C32.0568 40.6981 31.959 40.1143 31.959 39.4359V33.2329H34.5811V38.7119C34.5811 39.025 34.63 39.3087 34.7278 39.5631C34.8257 39.8175 34.9855 40.0197 35.2073 40.1697C35.429 40.3197 35.716 40.3948 36.0682 40.3948C36.4465 40.3948 36.7694 40.3165 37.0368 40.1599C37.3043 40.0034 37.5163 39.7881 37.6728 39.5142C37.8293 39.2402 37.9076 38.9141 37.9076 38.5358V33.2329H40.5101Z" fill="white"/>
<path d="M47.614 33.1938V36.1681H46.8117C46.2638 36.1681 45.8268 36.2301 45.5007 36.354C45.1746 36.4779 44.9463 36.6867 44.8158 36.9802C44.6854 37.2737 44.6201 37.6748 44.6201 38.1836V42.4885H41.998V33.2329H44.5614V36.3627L44.6767 36.3703C44.7647 35.8887 44.8626 35.4756 44.9724 35.131C45.142 34.5962 45.3344 34.1885 45.5496 33.908C45.7649 33.6275 46.0127 33.4384 46.2932 33.3405C46.5737 33.2427 46.89 33.1938 47.2422 33.1938H47.614Z" fill="white"/>
<path d="M27.3221 51.505V57.708H24.7V52.229C24.7 51.9029 24.6478 51.6126 24.5435 51.3582C24.4391 51.1039 24.276 50.9049 24.0543 50.7614C23.8325 50.6179 23.539 50.5462 23.1737 50.5462C22.8084 50.5462 22.4725 50.6212 22.2051 50.7712C21.9377 50.9212 21.7322 51.1365 21.5887 51.4169C21.4452 51.6974 21.3735 52.0268 21.3735 52.4051V57.708H18.7514V52.229C18.7514 51.9029 18.6992 51.6126 18.5948 51.3582C18.4905 51.1039 18.3274 50.9049 18.1056 50.7614C17.8839 50.6179 17.5903 50.5462 17.2251 50.5462C16.8598 50.5462 16.5435 50.6212 16.276 50.7712C16.0086 50.9212 15.7999 51.1365 15.6499 51.4169C15.4998 51.6974 15.4248 52.0268 15.4248 52.4051V57.708H12.8027V48.4524H15.3857V50.9767H15.489C15.614 50.4983 15.7684 50.0874 15.9532 49.7439C16.2402 49.209 16.6087 48.8144 17.0587 48.56C17.5088 48.3057 18.0143 48.1785 18.5753 48.1785C19.2145 48.1785 19.7363 48.3154 20.1407 48.5894C20.5451 48.8633 20.8451 49.2482 21.0408 49.7439C21.1876 50.1168 21.28 50.5397 21.3158 51.0158H21.4267C21.5398 50.531 21.6887 50.1135 21.8724 49.7635C22.1529 49.2286 22.5149 48.8307 22.9585 48.5698C23.402 48.3089 23.9108 48.1785 24.4848 48.1785C25.137 48.1785 25.6719 48.3154 26.0893 48.5894C26.5068 48.8633 26.8166 49.2482 27.0188 49.7439C27.221 50.2396 27.3221 50.8267 27.3221 51.505Z" fill="white"/>
<path d="M31.509 47.2979H28.7891V45.4781H31.509V47.2979ZM31.4503 57.708H28.8282V48.4524H31.4503V57.708Z" fill="white"/>
<path d="M41.5864 51.505V57.708H38.9643V52.229C38.9643 51.9029 38.9088 51.6126 38.7979 51.3582C38.687 51.1039 38.524 50.9049 38.3087 50.7614C38.0935 50.6179 37.8032 50.5462 37.438 50.5462C37.0727 50.5462 36.7563 50.6212 36.4889 50.7712C36.2215 50.9212 36.0128 51.1365 35.8627 51.4169C35.7127 51.6974 35.6377 52.0268 35.6377 52.4051V57.708H33.0156V48.4524H35.5986V50.9767H35.7106C35.8269 50.494 35.9823 50.0766 36.1758 49.7243C36.4694 49.1895 36.8379 48.7981 37.2814 48.5503C37.725 48.3024 38.2272 48.1785 38.7881 48.1785C39.4274 48.1785 39.9524 48.3154 40.3634 48.5894C40.7743 48.8633 41.0808 49.2482 41.2831 49.7439C41.4853 50.2396 41.5864 50.8267 41.5864 51.505Z" fill="white"/>
<path d="M49.0619 45.439V50.8788H48.9651C48.8684 50.4951 48.7477 50.1526 48.602 49.8515C48.3346 49.2971 47.9791 48.8797 47.5356 48.5992C47.0921 48.3187 46.5572 48.1785 45.931 48.1785C44.8613 48.1785 44.0395 48.6057 43.4655 49.4602C42.8915 50.3146 42.6045 51.5376 42.6045 53.1291C42.6045 54.7207 42.885 55.8621 43.4459 56.7101C44.0069 57.558 44.8157 57.982 45.8723 57.982C46.355 57.982 46.7822 57.9004 47.154 57.7374C47.5258 57.5743 47.8454 57.3297 48.1129 57.0036C48.3803 56.6774 48.6042 56.2796 48.7879 55.8099C48.8575 55.6317 48.9184 55.4425 48.9738 55.2425H49.0619V57.708H51.684V45.439H49.0619ZM48.8271 54.5772C48.6705 54.9163 48.4455 55.1772 48.152 55.3599C47.8585 55.5425 47.5084 55.6338 47.1051 55.6338C46.4268 55.6338 45.9376 55.4218 45.6375 54.9979C45.3375 54.5739 45.1875 53.9575 45.1875 53.1487C45.1875 52.2877 45.3407 51.6355 45.6473 51.1919C45.9539 50.7484 46.4463 50.5266 47.1247 50.5266C47.7248 50.5266 48.1976 50.7419 48.5433 51.1724C48.889 51.6028 49.0619 52.1834 49.0619 52.9139V53.3444C49.0619 53.8271 48.9836 54.238 48.8271 54.5772Z" fill="white"/>
</svg>
