<svg width="32" height="32" viewBox="0 0 32 32" fill="none" xmlns="http://www.w3.org/2000/svg">
<path d="M5.3335 10.667H26.6668M5.3335 10.667V22.4003C5.3335 23.8937 5.3335 24.6403 5.62416 25.211C5.87982 25.7127 6.28775 26.1207 6.7895 26.3763C7.35883 26.667 8.1055 26.667 9.59616 26.667H22.4042C23.8948 26.667 24.6402 26.667 25.2095 26.3763C25.7122 26.1203 26.1202 25.7123 26.3762 25.211C26.6668 24.6403 26.6668 23.8963 26.6668 22.4057V10.667M5.3335 10.667V9.60033C5.3335 8.10699 5.3335 7.36033 5.62416 6.78966C5.88016 6.28699 6.28683 5.88033 6.7895 5.62433C7.36016 5.33366 8.10683 5.33366 9.60016 5.33366H10.6668M26.6668 10.667V9.59633C26.6668 8.10566 26.6668 7.35899 26.3762 6.78966C26.1202 6.28771 25.7117 5.87976 25.2095 5.62433C24.6402 5.33366 23.8935 5.33366 22.4002 5.33366H21.3335M10.6668 5.33366H21.3335M10.6668 5.33366V2.66699M21.3335 5.33366V2.66699M20.0002 16.0003L14.6668 21.3337L12.0002 18.667" stroke="currentColor" stroke-width="2" stroke-linecap="round" stroke-linejoin="round"/>
</svg>
