<svg width="32" height="32" viewBox="0 0 32 32" fill="none" xmlns="http://www.w3.org/2000/svg"><path d="M21.3333 10.6663H26.6667C27.0203 10.6663 27.3594 10.8068 27.6095 11.0569C27.8595 11.3069 28 11.6461 28 11.9997V26.6663L23.556 22.9743C23.3163 22.7751 23.0144 22.6661 22.7027 22.6663H12C11.6464 22.6663 11.3072 22.5259 11.0572 22.2758C10.8071 22.0258 10.6667 21.6866 10.6667 21.333V17.333M21.3333 10.6663V6.66634C21.3333 6.31272 21.1929 5.97358 20.9428 5.72353C20.6928 5.47348 20.3536 5.33301 20 5.33301H5.33333C4.97971 5.33301 4.64057 5.47348 4.39052 5.72353C4.14048 5.97358 4 6.31272 4 6.66634V21.333L8.444 17.6397C8.684 17.4423 8.98533 17.333 9.29733 17.333H10.6667M21.3333 10.6663V15.9997C21.3333 16.3533 21.1929 16.6924 20.9428 16.9425C20.6928 17.1925 20.3536 17.333 20 17.333H10.6667" stroke="#039C69" stroke-width="2" stroke-linecap="round" stroke-linejoin="round"/></svg>