<svg width="36" height="36" viewBox="0 0 36 36" fill="none" xmlns="http://www.w3.org/2000/svg">
<rect width="36" height="36" rx="18" fill="#DC0000"/>
<path fill-rule="evenodd" clip-rule="evenodd" d="M10.2219 21.5355C9.05037 22.7071 9.05037 24.6066 10.2219 25.7782C11.3935 26.9497 13.293 26.9497 14.4646 25.7782L18.0001 22.2426L21.5357 25.7782C22.7072 26.9497 24.6067 26.9497 25.7783 25.7782C26.9499 24.6066 26.9499 22.7071 25.7783 21.5355L22.2428 18L25.7783 14.4645C26.9499 13.2929 26.9499 11.3934 25.7783 10.2218C24.6067 9.05025 22.7072 9.05025 21.5356 10.2218L18.0001 13.7573L14.4646 10.2218C13.293 9.05025 11.3935 9.05025 10.222 10.2218C9.05038 11.3934 9.05038 13.2929 10.222 14.4645L13.7575 18L10.2219 21.5355Z" fill="white"/>
</svg>
