<svg width="32" height="32" viewBox="0 0 32 32" fill="none" xmlns="http://www.w3.org/2000/svg"><path d="M23.1091 8.91761C23.5759 9.3031 24.1688 9.51503 24.7772 9.51503C25.5491 9.51503 26.2756 9.18237 26.7717 8.60234C27.6932 7.52331 27.5493 5.90855 26.4512 5.00242C25.9838 4.61694 25.3908 4.40467 24.7818 4.40467C24.0102 4.40467 23.2837 4.73734 22.7883 5.31737C21.8664 6.39672 22.0107 8.01115 23.1091 8.91761Z" fill="white"/><path d="M29.2464 11.842C29.0852 11.842 28.9222 11.8561 28.763 11.8837C27.2655 12.1432 26.2612 13.5523 26.5253 15.0243C26.7577 16.3218 27.8979 17.2634 29.2361 17.2634C29.397 17.2634 29.5606 17.2493 29.7205 17.2221C31.218 16.9622 32.2219 15.5535 31.9578 14.0821C31.7248 12.7843 30.5843 11.842 29.2464 11.842Z" fill="white"/><path d="M29.1506 20.7055C28.7072 20.4536 28.2044 20.321 27.6969 20.321C26.6559 20.321 25.6863 20.8705 25.1665 21.755C24.7775 22.4174 24.6733 23.189 24.8753 23.9285C25.0773 24.668 25.5604 25.2864 26.2339 25.6686C26.6776 25.9209 27.1804 26.0537 27.6886 26.0537C28.7289 26.0537 29.6985 25.5045 30.218 24.6204C31.0213 23.2517 30.5425 21.4955 29.1506 20.7055Z" fill="white"/><path d="M20.8565 25.8014C20.4992 25.8014 20.1453 25.8631 19.8048 25.9845C19.0335 26.2604 18.4182 26.8152 18.0709 27.5464C17.724 28.2777 17.6876 29.0979 17.9681 29.8561C18.4088 31.0456 19.57 31.8451 20.8575 31.8451C21.2147 31.8451 21.5686 31.7835 21.9082 31.6618C22.6788 31.3859 23.2937 30.8314 23.6413 30.0988C23.9885 29.3672 24.0253 28.5471 23.7455 27.7902C23.3054 26.6009 22.1439 25.8014 20.8565 25.8014Z" fill="white"/><path d="M13.0394 25.8379C12.6808 25.7099 12.3089 25.6449 11.9343 25.6449C10.5808 25.6449 9.36012 26.4855 8.89704 27.7364C8.60122 28.5339 8.63962 29.3964 9.00454 30.1651C9.36914 30.9341 10.0165 31.5171 10.8282 31.8074C11.1861 31.9357 11.5584 32 11.934 32C13.2882 32 14.5085 31.1595 14.9712 29.9095C15.2664 29.1136 15.2277 28.2511 14.8624 27.4818C14.4968 26.7115 13.8497 26.1279 13.0394 25.8379Z" fill="white"/><path d="M8.03564 21.5214C7.43132 20.4936 6.30516 19.8555 5.09586 19.8555C4.50457 19.8555 3.91995 20.0103 3.40412 20.302C2.61951 20.7472 2.0586 21.4663 1.82455 22.3249C1.58984 23.1844 1.71003 24.0823 2.1631 24.853C2.76741 25.8812 3.89391 26.5196 5.10321 26.5196C5.69417 26.5196 6.27878 26.3647 6.79429 26.0727C8.41292 25.1545 8.96982 23.1126 8.03564 21.5214Z" fill="white"/><path d="M3.55469 18.0409C5.27682 18.0409 6.74487 16.8287 7.04469 15.1585C7.20896 14.2409 7.00029 13.3157 6.45641 12.5536C5.91319 11.7905 5.09987 11.2814 4.16569 11.1193C3.95868 11.0839 3.74934 11.0658 3.54468 11.0658C1.82255 11.0658 0.354496 12.2777 0.0546753 13.9479C-0.109592 14.8649 0.0990808 15.79 0.642964 16.5531C1.18651 17.3159 2.00017 17.8254 2.93368 17.9871C3.13969 18.0229 3.34869 18.0409 3.55469 18.0409Z" fill="white"/><path d="M8.01327 10.6029C8.88101 10.6029 9.72638 10.3001 10.3938 9.75058C11.151 9.12627 11.6155 8.24802 11.7019 7.27759C11.7884 6.30716 11.4859 5.36297 10.8502 4.61891C10.1444 3.79217 9.10838 3.31811 8.00859 3.31811C7.13952 3.31811 6.29414 3.62059 5.62773 4.1701C4.8695 4.79541 4.40407 5.67365 4.31793 6.64277C4.23146 7.61124 4.53428 8.55575 5.17099 9.30146C5.8778 10.1285 6.91348 10.6029 8.01327 10.6029Z" fill="white"/><path d="M16.3955 7.92356C18.6223 7.92356 20.4274 6.14981 20.4274 3.96178C20.4274 1.77375 18.6223 0 16.3955 0C14.1688 0 12.3637 1.77375 12.3637 3.96178C12.3637 6.14981 14.1688 7.92356 16.3955 7.92356Z" fill="white"/></svg>