<svg width="15" height="15" viewBox="0 0 15 15" fill="none" xmlns="http://www.w3.org/2000/svg">
<path fill-rule="evenodd" clip-rule="evenodd" d="M13.433 9.28247C14.2615 9.28266 14.9329 8.61125 14.9327 7.78282C14.9325 6.95439 14.2607 6.28266 13.4323 6.28247L9.28095 6.28149L9.28069 2.12245C9.28064 1.29402 8.60902 0.62241 7.7806 0.622358C6.95217 0.622306 6.28064 1.29384 6.28069 2.12226L6.28095 6.28078L2.12097 6.2798C1.29254 6.2796 0.621125 6.95102 0.62132 7.77944C0.621516 8.60787 1.29325 9.2796 2.12167 9.2798L6.28114 9.28078L6.2814 13.4336C6.28145 14.262 6.95306 14.9337 7.78149 14.9337C8.60992 14.9338 9.28145 14.2622 9.2814 13.4338L9.28114 9.28149L13.433 9.28247Z" fill="white"/>
</svg>
