<svg width="24" height="25" viewBox="0 0 24 25" fill="none" xmlns="http://www.w3.org/2000/svg"><path d="M3 11.9819V16.7819C3 17.9019 3 18.4619 3.218 18.8899C3.40974 19.2662 3.71569 19.5722 4.092 19.7639C4.519 19.9819 5.079 19.9819 6.197 19.9819H17.803C18.921 19.9819 19.48 19.9819 19.907 19.7639C20.284 19.5719 20.59 19.2659 20.782 18.8899C21 18.4619 21 17.9039 21 16.7859V11.9819M3 11.9819V9.98193M3 11.9819H21M21 11.9819V9.98193M3 9.98193V9.18193C3 8.06193 3 7.50193 3.218 7.07393C3.41 6.69693 3.715 6.39193 4.092 6.19993C4.52 5.98193 5.08 5.98193 6.2 5.98193H17.8C18.92 5.98193 19.48 5.98193 19.907 6.19993C20.284 6.39193 20.59 6.69693 20.782 7.07393C21 7.50093 21 8.06093 21 9.17893V9.98193M3 9.98193H21M7 15.9819H11" stroke="currentColor" stroke-width="2" stroke-linecap="round" stroke-linejoin="round"/></svg>