<svg width="24" height="25" viewBox="0 0 24 25" fill="none" xmlns="http://www.w3.org/2000/svg">
<path d="M9.146 10.0559C9.3162 9.52917 9.62892 9.05982 10.0495 8.69989C10.4701 8.33995 10.9821 8.1035 11.5289 8.01673C12.0756 7.92995 12.6357 7.99625 13.147 8.20827C13.6584 8.42029 14.1011 8.76975 14.426 9.21793C14.7513 9.66546 14.9466 10.1942 14.9901 10.7458C15.0337 11.2974 14.9238 11.8503 14.6727 12.3433C14.4217 12.8363 14.0391 13.2503 13.5675 13.5395C13.0958 13.8287 12.5533 13.9818 12 13.9819V14.9819M12 21.9819C10.8181 21.9819 9.64778 21.7491 8.55585 21.2969C7.46392 20.8446 6.47177 20.1816 5.63604 19.3459C4.80031 18.5102 4.13738 17.518 3.68508 16.4261C3.23279 15.3342 3 14.1638 3 12.9819C3 11.8 3.23279 10.6297 3.68508 9.53778C4.13738 8.44585 4.80031 7.4537 5.63604 6.61797C6.47177 5.78225 7.46392 5.11931 8.55585 4.66702C9.64778 4.21473 10.8181 3.98193 12 3.98193C14.3869 3.98193 16.6761 4.93015 18.364 6.61797C20.0518 8.3058 21 10.595 21 12.9819C21 15.3689 20.0518 17.6581 18.364 19.3459C16.6761 21.0337 14.3869 21.9819 12 21.9819ZM12.05 17.9819V18.0819H11.95V17.9819H12.05Z" stroke="currentColor" stroke-width="2" stroke-linecap="round" stroke-linejoin="round"/>
</svg>
