<svg width="24" height="25" viewBox="0 0 24 25" fill="none" xmlns="http://www.w3.org/2000/svg"><path d="M21 20.9824C21 19.2404 19.33 17.7594 17 17.2094M15 20.9824C15 18.7724 12.314 16.9824 9 16.9824C5.686 16.9824 3 18.7724 3 20.9824M15 13.9824C16.0609 13.9824 17.0783 13.561 17.8284 12.8108C18.5786 12.0607 19 11.0433 19 9.98242C19 8.92156 18.5786 7.90414 17.8284 7.15399C17.0783 6.40385 16.0609 5.98242 15 5.98242M9 13.9824C7.93913 13.9824 6.92172 13.561 6.17157 12.8108C5.42143 12.0607 5 11.0433 5 9.98242C5 8.92156 5.42143 7.90414 6.17157 7.15399C6.92172 6.40385 7.93913 5.98242 9 5.98242C10.0609 5.98242 11.0783 6.40385 11.8284 7.15399C12.5786 7.90414 13 8.92156 13 9.98242C13 11.0433 12.5786 12.0607 11.8284 12.8108C11.0783 13.561 10.0609 13.9824 9 13.9824Z" stroke="currentColor" stroke-width="2" stroke-linecap="round" stroke-linejoin="round"/></svg>