<svg width="24" height="25" viewBox="0 0 24 25" fill="none" xmlns="http://www.w3.org/2000/svg">
<path d="M9 20.9805C9 21.2457 9.10536 21.5 9.29289 21.6876C9.48043 21.8751 9.73478 21.9805 10 21.9805H14C14.2652 21.9805 14.5196 21.8751 14.7071 21.6876C14.8946 21.5 15 21.2457 15 20.9805V15.9805H20C20.2652 15.9805 20.5196 15.8751 20.7071 15.6876C20.8946 15.5 21 15.2457 21 14.9805V10.9805C21 10.7153 20.8946 10.4609 20.7071 10.2734C20.5196 10.0858 20.2652 9.98047 20 9.98047H15V4.98047C15 4.71525 14.8946 4.4609 14.7071 4.27336C14.5196 4.08583 14.2652 3.98047 14 3.98047H10C9.73478 3.98047 9.48043 4.08583 9.29289 4.27336C9.10536 4.4609 9 4.71525 9 4.98047V9.98047H4C3.73478 9.98047 3.48043 10.0858 3.29289 10.2734C3.10536 10.4609 3 10.7153 3 10.9805V14.9805C3 15.2457 3.10536 15.5 3.29289 15.6876C3.48043 15.8751 3.73478 15.9805 4 15.9805H9V20.9805Z" stroke="white" stroke-width="2" stroke-linecap="round" stroke-linejoin="round"/>
</svg>
