<svg xmlns="http://www.w3.org/2000/svg" fill="none" viewBox="0 0 151 32">
  <path fill="#021038"
    d="M60.905 13.87h-4.21a3.388 3.388 0 0 0-.128-1.185 2.286 2.286 0 0 0-.511-.904 2.209 2.209 0 0 0-.87-.58 3.421 3.421 0 0 0-1.21-.196c-.88 0-1.679.22-2.395.657-.715.437-1.315 1.068-1.798 1.892-.483.824-.82 1.812-1.014 2.966-.176 1.113-.173 2.042.009 2.787.187.744.534 1.304 1.04 1.679.505.369 1.147.554 1.925.554.506 0 .975-.06 1.407-.18a4.247 4.247 0 0 0 1.184-.536 3.866 3.866 0 0 0 1.517-1.96h4.245a8.463 8.463 0 0 1-1.04 2.292 8.91 8.91 0 0 1-1.807 2.054 8.77 8.77 0 0 1-2.531 1.474c-.96.37-2.029.554-3.205.554-1.608 0-2.994-.36-4.159-1.082-1.159-.721-1.997-1.767-2.514-3.136-.511-1.375-.608-3.04-.29-4.995.313-1.892.93-3.485 1.85-4.78.926-1.296 2.05-2.276 3.375-2.941a9.38 9.38 0 0 1 4.253-.997c1.09 0 2.07.147 2.94.443.875.29 1.616.716 2.224 1.278a5.099 5.099 0 0 1 1.355 2.054c.302.813.42 1.742.358 2.787Z"></path>
  <path fill="#000" fill-opacity="0.2"
    d="M60.905 13.87h-4.21a3.388 3.388 0 0 0-.128-1.185 2.286 2.286 0 0 0-.511-.904 2.209 2.209 0 0 0-.87-.58 3.421 3.421 0 0 0-1.21-.196c-.88 0-1.679.22-2.395.657-.715.437-1.315 1.068-1.798 1.892-.483.824-.82 1.812-1.014 2.966-.176 1.113-.173 2.042.009 2.787.187.744.534 1.304 1.04 1.679.505.369 1.147.554 1.925.554.506 0 .975-.06 1.407-.18a4.247 4.247 0 0 0 1.184-.536 3.866 3.866 0 0 0 1.517-1.96h4.245a8.463 8.463 0 0 1-1.04 2.292 8.91 8.91 0 0 1-1.807 2.054 8.77 8.77 0 0 1-2.531 1.474c-.96.37-2.029.554-3.205.554-1.608 0-2.994-.36-4.159-1.082-1.159-.721-1.997-1.767-2.514-3.136-.511-1.375-.608-3.04-.29-4.995.313-1.892.93-3.485 1.85-4.78.926-1.296 2.05-2.276 3.375-2.941a9.38 9.38 0 0 1 4.253-.997c1.09 0 2.07.147 2.94.443.875.29 1.616.716 2.224 1.278a5.099 5.099 0 0 1 1.355 2.054c.302.813.42 1.742.358 2.787Z"></path>
  <path fill="#000" fill-opacity="0.2"
    d="M60.905 13.87h-4.21a3.388 3.388 0 0 0-.128-1.185 2.286 2.286 0 0 0-.511-.904 2.209 2.209 0 0 0-.87-.58 3.421 3.421 0 0 0-1.21-.196c-.88 0-1.679.22-2.395.657-.715.437-1.315 1.068-1.798 1.892-.483.824-.82 1.812-1.014 2.966-.176 1.113-.173 2.042.009 2.787.187.744.534 1.304 1.04 1.679.505.369 1.147.554 1.925.554.506 0 .975-.06 1.407-.18a4.247 4.247 0 0 0 1.184-.536 3.866 3.866 0 0 0 1.517-1.96h4.245a8.463 8.463 0 0 1-1.04 2.292 8.91 8.91 0 0 1-1.807 2.054 8.77 8.77 0 0 1-2.531 1.474c-.96.37-2.029.554-3.205.554-1.608 0-2.994-.36-4.159-1.082-1.159-.721-1.997-1.767-2.514-3.136-.511-1.375-.608-3.04-.29-4.995.313-1.892.93-3.485 1.85-4.78.926-1.296 2.05-2.276 3.375-2.941a9.38 9.38 0 0 1 4.253-.997c1.09 0 2.07.147 2.94.443.875.29 1.616.716 2.224 1.278a5.099 5.099 0 0 1 1.355 2.054c.302.813.42 1.742.358 2.787Z"></path>
  <path fill="#021038"
    d="M65.143 25.221c-.83 0-1.545-.139-2.147-.417a2.702 2.702 0 0 1-1.313-1.287c-.273-.574-.338-1.29-.196-2.148.125-.727.355-1.338.69-1.832.341-.5.759-.906 1.253-1.219a6.13 6.13 0 0 1 1.67-.716 10.99 10.99 0 0 1 1.927-.332 24.37 24.37 0 0 0 1.824-.222c.471-.08.823-.19 1.056-.332a.909.909 0 0 0 .427-.614v-.043c.068-.437-.026-.775-.282-1.014-.255-.238-.639-.358-1.15-.358-.546 0-1.011.12-1.398.358a1.898 1.898 0 0 0-.81.989l-3.818-.136a5.369 5.369 0 0 1 1.227-2.131c.58-.63 1.316-1.125 2.208-1.483.898-.364 1.935-.546 3.11-.546.83 0 1.58.1 2.25.299.671.193 1.236.477 1.697.852.466.37.798.824.997 1.364.199.54.241 1.156.128 1.85L73 25h-3.92l.307-1.824h-.103a4.748 4.748 0 0 1-1.082 1.125c-.41.307-.87.537-1.38.69a5.824 5.824 0 0 1-1.68.23Zm1.756-2.727c.438 0 .852-.09 1.244-.273a2.82 2.82 0 0 0 .989-.75c.273-.323.446-.698.52-1.125l.196-1.244c-.12.063-.27.12-.452.17-.182.052-.375.1-.58.145-.204.04-.414.08-.63.12-.21.034-.412.065-.605.094a4.32 4.32 0 0 0-1.066.29 1.98 1.98 0 0 0-.724.51 1.393 1.393 0 0 0-.324.734c-.068.426.031.755.298.988.267.228.645.341 1.134.341Z"></path>
  <path fill="#000" fill-opacity="0.2"
    d="M65.143 25.221c-.83 0-1.545-.139-2.147-.417a2.702 2.702 0 0 1-1.313-1.287c-.273-.574-.338-1.29-.196-2.148.125-.727.355-1.338.69-1.832.341-.5.759-.906 1.253-1.219a6.13 6.13 0 0 1 1.67-.716 10.99 10.99 0 0 1 1.927-.332 24.37 24.37 0 0 0 1.824-.222c.471-.08.823-.19 1.056-.332a.909.909 0 0 0 .427-.614v-.043c.068-.437-.026-.775-.282-1.014-.255-.238-.639-.358-1.15-.358-.546 0-1.011.12-1.398.358a1.898 1.898 0 0 0-.81.989l-3.818-.136a5.369 5.369 0 0 1 1.227-2.131c.58-.63 1.316-1.125 2.208-1.483.898-.364 1.935-.546 3.11-.546.83 0 1.58.1 2.25.299.671.193 1.236.477 1.697.852.466.37.798.824.997 1.364.199.54.241 1.156.128 1.85L73 25h-3.92l.307-1.824h-.103a4.748 4.748 0 0 1-1.082 1.125c-.41.307-.87.537-1.38.69a5.824 5.824 0 0 1-1.68.23Zm1.756-2.727c.438 0 .852-.09 1.244-.273a2.82 2.82 0 0 0 .989-.75c.273-.323.446-.698.52-1.125l.196-1.244c-.12.063-.27.12-.452.17-.182.052-.375.1-.58.145-.204.04-.414.08-.63.12-.21.034-.412.065-.605.094a4.32 4.32 0 0 0-1.066.29 1.98 1.98 0 0 0-.724.51 1.393 1.393 0 0 0-.324.734c-.068.426.031.755.298.988.267.228.645.341 1.134.341Z"></path>
  <path fill="#000" fill-opacity="0.2"
    d="M65.143 25.221c-.83 0-1.545-.139-2.147-.417a2.702 2.702 0 0 1-1.313-1.287c-.273-.574-.338-1.29-.196-2.148.125-.727.355-1.338.69-1.832.341-.5.759-.906 1.253-1.219a6.13 6.13 0 0 1 1.67-.716 10.99 10.99 0 0 1 1.927-.332 24.37 24.37 0 0 0 1.824-.222c.471-.08.823-.19 1.056-.332a.909.909 0 0 0 .427-.614v-.043c.068-.437-.026-.775-.282-1.014-.255-.238-.639-.358-1.15-.358-.546 0-1.011.12-1.398.358a1.898 1.898 0 0 0-.81.989l-3.818-.136a5.369 5.369 0 0 1 1.227-2.131c.58-.63 1.316-1.125 2.208-1.483.898-.364 1.935-.546 3.11-.546.83 0 1.58.1 2.25.299.671.193 1.236.477 1.697.852.466.37.798.824.997 1.364.199.54.241 1.156.128 1.85L73 25h-3.92l.307-1.824h-.103a4.748 4.748 0 0 1-1.082 1.125c-.41.307-.87.537-1.38.69a5.824 5.824 0 0 1-1.68.23Zm1.756-2.727c.438 0 .852-.09 1.244-.273a2.82 2.82 0 0 0 .989-.75c.273-.323.446-.698.52-1.125l.196-1.244c-.12.063-.27.12-.452.17-.182.052-.375.1-.58.145-.204.04-.414.08-.63.12-.21.034-.412.065-.605.094a4.32 4.32 0 0 0-1.066.29 1.98 1.98 0 0 0-.724.51 1.393 1.393 0 0 0-.324.734c-.068.426.031.755.298.988.267.228.645.341 1.134.341Z"></path>
  <path fill="#021038"
    d="m75.55 25 2.181-13.091h4.049l-.4 2.386h.135c.381-.863.878-1.505 1.492-1.926A3.427 3.427 0 0 1 85 11.73c.193 0 .387.015.58.044.199.022.386.056.562.102l-.613 3.63a3.12 3.12 0 0 0-.759-.161 6.797 6.797 0 0 0-.852-.06c-.495 0-.955.11-1.38.332-.421.216-.78.52-1.075.912-.29.387-.48.841-.57 1.364L79.716 25H75.55Z"></path>
  <path fill="#000" fill-opacity="0.2"
    d="m75.55 25 2.181-13.091h4.049l-.4 2.386h.135c.381-.863.878-1.505 1.492-1.926A3.427 3.427 0 0 1 85 11.73c.193 0 .387.015.58.044.199.022.386.056.562.102l-.613 3.63a3.12 3.12 0 0 0-.759-.161 6.797 6.797 0 0 0-.852-.06c-.495 0-.955.11-1.38.332-.421.216-.78.52-1.075.912-.29.387-.48.841-.57 1.364L79.716 25H75.55Z"></path>
  <path fill="#000" fill-opacity="0.2"
    d="m75.55 25 2.181-13.091h4.049l-.4 2.386h.135c.381-.863.878-1.505 1.492-1.926A3.427 3.427 0 0 1 85 11.73c.193 0 .387.015.58.044.199.022.386.056.562.102l-.613 3.63a3.12 3.12 0 0 0-.759-.161 6.797 6.797 0 0 0-.852-.06c-.495 0-.955.11-1.38.332-.421.216-.78.52-1.075.912-.29.387-.48.841-.57 1.364L79.716 25H75.55Z"></path>
  <path fill="#021038"
    d="M89.736 25.187c-.966 0-1.804-.25-2.515-.75-.71-.5-1.218-1.25-1.525-2.25-.301-1-.33-2.241-.085-3.724.255-1.54.71-2.807 1.363-3.801.654-.995 1.415-1.73 2.284-2.208.875-.477 1.767-.716 2.677-.716.687 0 1.255.12 1.704.358.455.233.81.534 1.065.904.256.37.432.753.529 1.15h.093l1.1-6.605h4.168L97.696 25H93.57l.35-2.122h-.129a5.261 5.261 0 0 1-.937 1.133c-.38.352-.832.637-1.355.852-.517.216-1.105.324-1.764.324Zm1.968-3.247a2.35 2.35 0 0 0 1.373-.426c.409-.29.752-.696 1.03-1.219.285-.523.484-1.136.597-1.84.12-.716.125-1.333.017-1.85-.108-.517-.32-.915-.639-1.193-.312-.279-.724-.418-1.236-.418-.51 0-.968.142-1.372.426-.403.284-.738.685-1.005 1.202-.267.517-.46 1.128-.58 1.832-.114.705-.125 1.319-.034 1.841.096.523.298.93.605 1.219.313.284.727.426 1.244.426Z"></path>
  <path fill="#000" fill-opacity="0.2"
    d="M89.736 25.187c-.966 0-1.804-.25-2.515-.75-.71-.5-1.218-1.25-1.525-2.25-.301-1-.33-2.241-.085-3.724.255-1.54.71-2.807 1.363-3.801.654-.995 1.415-1.73 2.284-2.208.875-.477 1.767-.716 2.677-.716.687 0 1.255.12 1.704.358.455.233.81.534 1.065.904.256.37.432.753.529 1.15h.093l1.1-6.605h4.168L97.696 25H93.57l.35-2.122h-.129a5.261 5.261 0 0 1-.937 1.133c-.38.352-.832.637-1.355.852-.517.216-1.105.324-1.764.324Zm1.968-3.247a2.35 2.35 0 0 0 1.373-.426c.409-.29.752-.696 1.03-1.219.285-.523.484-1.136.597-1.84.12-.716.125-1.333.017-1.85-.108-.517-.32-.915-.639-1.193-.312-.279-.724-.418-1.236-.418-.51 0-.968.142-1.372.426-.403.284-.738.685-1.005 1.202-.267.517-.46 1.128-.58 1.832-.114.705-.125 1.319-.034 1.841.096.523.298.93.605 1.219.313.284.727.426 1.244.426Z"></path>
  <path fill="#000" fill-opacity="0.2"
    d="M89.736 25.187c-.966 0-1.804-.25-2.515-.75-.71-.5-1.218-1.25-1.525-2.25-.301-1-.33-2.241-.085-3.724.255-1.54.71-2.807 1.363-3.801.654-.995 1.415-1.73 2.284-2.208.875-.477 1.767-.716 2.677-.716.687 0 1.255.12 1.704.358.455.233.81.534 1.065.904.256.37.432.753.529 1.15h.093l1.1-6.605h4.168L97.696 25H93.57l.35-2.122h-.129a5.261 5.261 0 0 1-.937 1.133c-.38.352-.832.637-1.355.852-.517.216-1.105.324-1.764.324Zm1.968-3.247a2.35 2.35 0 0 0 1.373-.426c.409-.29.752-.696 1.03-1.219.285-.523.484-1.136.597-1.84.12-.716.125-1.333.017-1.85-.108-.517-.32-.915-.639-1.193-.312-.279-.724-.418-1.236-.418-.51 0-.968.142-1.372.426-.403.284-.738.685-1.005 1.202-.267.517-.46 1.128-.58 1.832-.114.705-.125 1.319-.034 1.841.096.523.298.93.605 1.219.313.284.727.426 1.244.426Z"></path>
  <path fill="#021038"
    d="M113.753 13.247a2.922 2.922 0 0 0-.239-.946 2.076 2.076 0 0 0-.511-.707 2.095 2.095 0 0 0-.801-.435 3.63 3.63 0 0 0-1.108-.154 4.63 4.63 0 0 0-2.336.614c-.716.41-1.321 1.006-1.815 1.79-.494.778-.832 1.724-1.014 2.838-.182 1.12-.188 2.074-.017 2.864.176.79.528 1.392 1.057 1.806.528.415 1.227.623 2.096.623.779 0 1.466-.125 2.063-.375a3.646 3.646 0 0 0 1.449-1.083c.375-.466.61-1.014.707-1.645l.775.094h-4.244l.512-3.077h7.517l-.384 2.31c-.256 1.563-.807 2.9-1.653 4.014a8.388 8.388 0 0 1-3.154 2.566c-1.255.596-2.633.894-4.133.894-1.659 0-3.06-.36-4.202-1.082-1.142-.721-1.955-1.75-2.437-3.085-.483-1.341-.574-2.932-.273-4.773.238-1.432.662-2.702 1.27-3.81.613-1.113 1.363-2.056 2.25-2.83a9.51 9.51 0 0 1 2.957-1.755 9.665 9.665 0 0 1 3.367-.596c1.005 0 1.92.145 2.744.434.824.29 1.528.7 2.113 1.228a5.086 5.086 0 0 1 1.322 1.883c.301.727.431 1.526.392 2.395h-4.27Z"></path>
  <path fill="#000" fill-opacity="0.2"
    d="M113.753 13.247a2.922 2.922 0 0 0-.239-.946 2.076 2.076 0 0 0-.511-.707 2.095 2.095 0 0 0-.801-.435 3.63 3.63 0 0 0-1.108-.154 4.63 4.63 0 0 0-2.336.614c-.716.41-1.321 1.006-1.815 1.79-.494.778-.832 1.724-1.014 2.838-.182 1.12-.188 2.074-.017 2.864.176.79.528 1.392 1.057 1.806.528.415 1.227.623 2.096.623.779 0 1.466-.125 2.063-.375a3.646 3.646 0 0 0 1.449-1.083c.375-.466.61-1.014.707-1.645l.775.094h-4.244l.512-3.077h7.517l-.384 2.31c-.256 1.563-.807 2.9-1.653 4.014a8.388 8.388 0 0 1-3.154 2.566c-1.255.596-2.633.894-4.133.894-1.659 0-3.06-.36-4.202-1.082-1.142-.721-1.955-1.75-2.437-3.085-.483-1.341-.574-2.932-.273-4.773.238-1.432.662-2.702 1.27-3.81.613-1.113 1.363-2.056 2.25-2.83a9.51 9.51 0 0 1 2.957-1.755 9.665 9.665 0 0 1 3.367-.596c1.005 0 1.92.145 2.744.434.824.29 1.528.7 2.113 1.228a5.086 5.086 0 0 1 1.322 1.883c.301.727.431 1.526.392 2.395h-4.27Z"></path>
  <path fill="#000" fill-opacity="0.2"
    d="M113.753 13.247a2.922 2.922 0 0 0-.239-.946 2.076 2.076 0 0 0-.511-.707 2.095 2.095 0 0 0-.801-.435 3.63 3.63 0 0 0-1.108-.154 4.63 4.63 0 0 0-2.336.614c-.716.41-1.321 1.006-1.815 1.79-.494.778-.832 1.724-1.014 2.838-.182 1.12-.188 2.074-.017 2.864.176.79.528 1.392 1.057 1.806.528.415 1.227.623 2.096.623.779 0 1.466-.125 2.063-.375a3.646 3.646 0 0 0 1.449-1.083c.375-.466.61-1.014.707-1.645l.775.094h-4.244l.512-3.077h7.517l-.384 2.31c-.256 1.563-.807 2.9-1.653 4.014a8.388 8.388 0 0 1-3.154 2.566c-1.255.596-2.633.894-4.133.894-1.659 0-3.06-.36-4.202-1.082-1.142-.721-1.955-1.75-2.437-3.085-.483-1.341-.574-2.932-.273-4.773.238-1.432.662-2.702 1.27-3.81.613-1.113 1.363-2.056 2.25-2.83a9.51 9.51 0 0 1 2.957-1.755 9.665 9.665 0 0 1 3.367-.596c1.005 0 1.92.145 2.744.434.824.29 1.528.7 2.113 1.228a5.086 5.086 0 0 1 1.322 1.883c.301.727.431 1.526.392 2.395h-4.27Z"></path>
  <path fill="#021038"
    d="M124.83 25.247c-1.369 0-2.506-.27-3.409-.81-.898-.545-1.528-1.32-1.892-2.326-.364-1.012-.429-2.213-.196-3.605.227-1.353.69-2.535 1.389-3.546a7.387 7.387 0 0 1 2.659-2.37c1.068-.567 2.259-.851 3.571-.851.932 0 1.759.144 2.48.434.722.29 1.319.722 1.79 1.296.472.568.793 1.267.963 2.096.171.83.165 1.781-.017 2.855l-.162 1.04h-11.369l.383-2.42h7.5c.069-.444.032-.838-.11-1.185a1.661 1.661 0 0 0-.691-.81c-.312-.199-.696-.298-1.15-.298-.461 0-.892.108-1.296.324-.397.21-.736.494-1.014.852s-.46.761-.545 1.21l-.452 2.48c-.091.552-.065 1.023.077 1.415.142.392.386.693.733.904.346.204.792.306 1.338.306a3.5 3.5 0 0 0 1.022-.144c.319-.103.603-.253.853-.452.255-.205.463-.452.622-.742l3.801.111a5.927 5.927 0 0 1-1.423 2.242c-.642.63-1.427 1.122-2.353 1.474-.92.347-1.954.52-3.102.52Z"></path>
  <path fill="#000" fill-opacity="0.2"
    d="M124.83 25.247c-1.369 0-2.506-.27-3.409-.81-.898-.545-1.528-1.32-1.892-2.326-.364-1.012-.429-2.213-.196-3.605.227-1.353.69-2.535 1.389-3.546a7.387 7.387 0 0 1 2.659-2.37c1.068-.567 2.259-.851 3.571-.851.932 0 1.759.144 2.48.434.722.29 1.319.722 1.79 1.296.472.568.793 1.267.963 2.096.171.83.165 1.781-.017 2.855l-.162 1.04h-11.369l.383-2.42h7.5c.069-.444.032-.838-.11-1.185a1.661 1.661 0 0 0-.691-.81c-.312-.199-.696-.298-1.15-.298-.461 0-.892.108-1.296.324-.397.21-.736.494-1.014.852s-.46.761-.545 1.21l-.452 2.48c-.091.552-.065 1.023.077 1.415.142.392.386.693.733.904.346.204.792.306 1.338.306a3.5 3.5 0 0 0 1.022-.144c.319-.103.603-.253.853-.452.255-.205.463-.452.622-.742l3.801.111a5.927 5.927 0 0 1-1.423 2.242c-.642.63-1.427 1.122-2.353 1.474-.92.347-1.954.52-3.102.52Z"></path>
  <path fill="#000" fill-opacity="0.2"
    d="M124.83 25.247c-1.369 0-2.506-.27-3.409-.81-.898-.545-1.528-1.32-1.892-2.326-.364-1.012-.429-2.213-.196-3.605.227-1.353.69-2.535 1.389-3.546a7.387 7.387 0 0 1 2.659-2.37c1.068-.567 2.259-.851 3.571-.851.932 0 1.759.144 2.48.434.722.29 1.319.722 1.79 1.296.472.568.793 1.267.963 2.096.171.83.165 1.781-.017 2.855l-.162 1.04h-11.369l.383-2.42h7.5c.069-.444.032-.838-.11-1.185a1.661 1.661 0 0 0-.691-.81c-.312-.199-.696-.298-1.15-.298-.461 0-.892.108-1.296.324-.397.21-.736.494-1.014.852s-.46.761-.545 1.21l-.452 2.48c-.091.552-.065 1.023.077 1.415.142.392.386.693.733.904.346.204.792.306 1.338.306a3.5 3.5 0 0 0 1.022-.144c.319-.103.603-.253.853-.452.255-.205.463-.452.622-.742l3.801.111a5.927 5.927 0 0 1-1.423 2.242c-.642.63-1.427 1.122-2.353 1.474-.92.347-1.954.52-3.102.52Z"></path>
  <path fill="#021038"
    d="M138.643 17.534 137.399 25h-4.168l2.182-13.091h3.963l-.392 2.403h.145a4.52 4.52 0 0 1 1.781-1.883c.779-.46 1.654-.69 2.625-.69.915 0 1.679.204 2.293.613.614.41 1.048.983 1.304 1.722.256.733.298 1.593.128 2.582L145.862 25h-4.168l1.253-7.526c.125-.721.037-1.287-.264-1.696-.295-.415-.778-.622-1.449-.622-.437 0-.838.097-1.202.29a2.511 2.511 0 0 0-.903.81c-.239.352-.4.778-.486 1.278Z"></path>
  <path fill="#000" fill-opacity="0.2"
    d="M138.643 17.534 137.399 25h-4.168l2.182-13.091h3.963l-.392 2.403h.145a4.52 4.52 0 0 1 1.781-1.883c.779-.46 1.654-.69 2.625-.69.915 0 1.679.204 2.293.613.614.41 1.048.983 1.304 1.722.256.733.298 1.593.128 2.582L145.862 25h-4.168l1.253-7.526c.125-.721.037-1.287-.264-1.696-.295-.415-.778-.622-1.449-.622-.437 0-.838.097-1.202.29a2.511 2.511 0 0 0-.903.81c-.239.352-.4.778-.486 1.278Z"></path>
  <path fill="#000" fill-opacity="0.2"
    d="M138.643 17.534 137.399 25h-4.168l2.182-13.091h3.963l-.392 2.403h.145a4.52 4.52 0 0 1 1.781-1.883c.779-.46 1.654-.69 2.625-.69.915 0 1.679.204 2.293.613.614.41 1.048.983 1.304 1.722.256.733.298 1.593.128 2.582L145.862 25h-4.168l1.253-7.526c.125-.721.037-1.287-.264-1.696-.295-.415-.778-.622-1.449-.622-.437 0-.838.097-1.202.29a2.511 2.511 0 0 0-.903.81c-.239.352-.4.778-.486 1.278Z"></path>
  <path fill="#0943F2" d="M1 18a1 1 0 0 1-1-1v-5a8 8 0 0 1 8-8h12a1 1 0 0 1 1 1v5a8 8 0 0 1-8 8H1Z"></path>
  <path fill="#021038" fill-rule="evenodd"
    d="M12.078 20H13c4.523 0 8.345-3.003 9.58-7.125H25a8 8 0 0 1 8 8v5a1 1 0 0 1-1 1H20A8.002 8.002 0 0 1 12.078 20Z"
    clip-rule="evenodd"></path>
  <path fill="#000" fill-opacity="0.2" fill-rule="evenodd"
    d="M12.078 20H13c4.523 0 8.345-3.003 9.58-7.125H25a8 8 0 0 1 8 8v5a1 1 0 0 1-1 1H20A8.002 8.002 0 0 1 12.078 20Z"
    clip-rule="evenodd"></path>
  <path fill="#000" fill-opacity="0.2" fill-rule="evenodd"
    d="M12.078 20H13c4.523 0 8.345-3.003 9.58-7.125H25a8 8 0 0 1 8 8v5a1 1 0 0 1-1 1H20A8.002 8.002 0 0 1 12.078 20Z"
    clip-rule="evenodd"></path>
</svg>
