<svg width="387" height="52" viewBox="0 0 387 52" fill="none" xmlns="http://www.w3.org/2000/svg"><g clip-path="url(#clip0_1975_1333)"><path d="M74.1453 43.0085C74.701 43.552 75.3046 43.9639 75.9561 44.2417C76.6077 44.5194 77.264 44.6583 77.9274 44.6583C78.4831 44.6583 78.9526 44.5458 79.3383 44.3231C79.7239 44.1004 79.9155 43.7412 79.9155 43.2503C79.9155 42.951 79.8149 42.6948 79.6113 42.4817C79.4077 42.2686 79.0077 42.0219 78.4089 41.7441C77.8101 41.4664 76.9023 41.0928 75.6855 40.6235C75.1513 40.4104 74.5358 40.123 73.8435 39.7591C73.1489 39.3951 72.4854 38.9258 71.8579 38.3487C71.2279 37.7716 70.7033 37.0676 70.2866 36.2343C69.8698 35.401 69.6614 34.4192 69.6614 33.2866C69.6614 31.814 70.0566 30.5736 70.8471 29.5703C71.6375 28.5669 72.6842 27.8079 73.9872 27.2954C75.2903 26.783 76.7226 26.5268 78.2819 26.5268C79.9682 26.5268 81.4173 26.783 82.6246 27.2954C83.8318 27.8079 84.8258 28.4496 85.6043 29.2183C86.3827 29.9869 86.9767 30.7556 87.3839 31.5242L82.1599 34.4073C81.8174 33.8733 81.4389 33.4518 81.0221 33.1429C80.6054 32.834 80.1838 32.6042 79.7574 32.4533C79.3287 32.3048 78.9143 32.2282 78.5071 32.2282C78.0161 32.2282 77.6137 32.3144 77.3047 32.4844C76.9957 32.6544 76.84 32.9226 76.84 33.2842C76.84 33.732 77.058 34.1007 77.4963 34.3905C77.9346 34.6778 78.5167 34.946 79.2424 35.1903C79.9682 35.4369 80.7706 35.7195 81.6449 36.0379C82.5431 36.3588 83.3431 36.7371 84.0473 37.1753C84.7516 37.6136 85.3552 38.1212 85.8582 38.6983C86.3588 39.2754 86.7396 39.9219 86.9959 40.6355C87.2522 41.3514 87.3815 42.1464 87.3815 43.0228C87.3815 44.2608 87.1253 45.3575 86.6127 46.3058C86.1001 47.2564 85.4102 48.0418 84.5456 48.6596C83.6809 49.2798 82.7036 49.7491 81.6138 50.07C80.5239 50.3909 79.4029 50.5513 78.2484 50.5513C76.646 50.5513 75.1561 50.2903 73.7789 49.7659C72.4016 49.2439 71.2087 48.5231 70.2051 47.6036C69.2015 46.6865 68.4422 45.6592 67.9296 44.529L72.6722 41.0689C73.0986 41.816 73.5896 42.4625 74.1453 43.0061V43.0085Z" fill="black"/><path d="M97.7938 27.1661V49.5911H90.7445V27.1661H97.7938ZM95.2955 27.1661H99.5567C101.758 27.1661 103.547 27.475 104.924 28.0952C106.302 28.7154 107.317 29.5966 107.969 30.7388C108.62 31.881 108.946 33.2531 108.946 34.855C108.946 36.457 108.62 37.8027 107.969 38.9545C107.317 40.1087 106.302 40.9947 104.924 41.6124C103.547 42.2326 101.758 42.5415 99.5567 42.5415H95.2955V36.9359H99.5567C100.433 36.9359 101.094 36.7539 101.542 36.3923C101.99 36.0284 102.215 35.5159 102.215 34.855C102.215 34.1941 101.99 33.6817 101.542 33.3177C101.094 32.9538 100.431 32.7742 99.5567 32.7742H95.2955V27.1685V27.1661Z" fill="black"/><path d="M118.879 27.1661V49.5911H112.149V27.1661H118.879ZM117.021 27.1661H128.333V32.7718H117.021V27.1661ZM117.021 35.3339H127.691V40.7791H117.021V35.3339ZM117.021 43.9854H128.333V49.5911H117.021V43.9854Z" fill="black"/><path d="M139.998 43.5353L140.542 45.1372L138.106 49.5911H130.094L142.753 25.5642L155.412 49.5911H147.4L145.028 45.3623L145.51 43.5353L142.753 37.3525L139.996 43.5353H139.998ZM136.889 41.646H148.746V46.708H136.889V41.646Z" fill="black"/><path d="M164.866 27.1661V49.5911H157.496V27.1661H164.866ZM179.958 27.1661L171.211 37.6734L180.44 49.5911H171.915L162.847 37.8985L171.755 27.1661H179.958Z" fill="black"/><path d="M213.126 27.1661L205.051 40.7815V49.5911H197.841V40.8462L189.733 27.1661H197.906L201.432 34.4073L204.958 27.1661H213.13H213.126Z" fill="black"/><path d="M214.886 33.5093C215.528 32.0582 216.414 30.8082 217.545 29.7618C218.678 28.7154 220.002 27.9156 221.519 27.3601C223.035 26.8046 224.668 26.5268 226.422 26.5268C228.175 26.5268 229.871 26.8046 231.389 27.3601C232.906 27.9156 234.23 28.7178 235.363 29.7618C236.496 30.8082 237.37 32.0582 237.991 33.5093C238.611 34.9628 238.92 36.5839 238.92 38.3798C238.92 40.1757 238.616 41.8136 238.008 43.2982C237.399 44.7828 236.539 46.0687 235.428 47.1582C234.316 48.2477 232.997 49.0858 231.471 49.6725C229.943 50.2592 228.261 50.5537 226.424 50.5537C224.587 50.5537 222.903 50.2592 221.377 49.6725C219.849 49.0858 218.529 48.2477 217.42 47.1582C216.309 46.0687 215.449 44.7828 214.841 43.2982C214.232 41.8136 213.928 40.1757 213.928 38.3798C213.928 36.5839 214.249 34.9628 214.889 33.5093H214.886ZM222 41.2604C222.405 42.0937 222.982 42.7403 223.729 43.1976C224.477 43.6574 225.375 43.8873 226.422 43.8873C227.468 43.8873 228.367 43.6574 229.114 43.1976C229.861 42.7379 230.439 42.0914 230.843 41.2604C231.248 40.4271 231.452 39.4669 231.452 38.3774C231.452 37.2879 231.26 36.3013 230.874 35.4776C230.489 34.6563 229.928 34.0145 229.193 33.5548C228.455 33.095 227.531 32.8652 226.422 32.8652C225.375 32.8652 224.477 33.095 223.729 33.5548C222.982 34.0145 222.405 34.6539 222 35.4776C221.593 36.2989 221.392 37.2663 221.392 38.3774C221.392 39.4885 221.595 40.4271 222 41.2604Z" fill="black"/><path d="M249.014 27.1661V41.5813C249.014 42.4793 249.244 43.2096 249.704 43.7747C250.164 44.3398 250.873 44.6224 251.835 44.6224C252.798 44.6224 253.507 44.3398 253.967 43.7747C254.427 43.2096 254.657 42.4769 254.657 41.5813V27.1661H261.706V42.2231C261.706 43.825 261.445 45.1755 260.921 46.2746C260.396 47.3737 259.675 48.2597 258.758 48.9326C257.838 49.6054 256.786 50.0963 255.601 50.4052C254.415 50.7141 253.16 50.8698 251.835 50.8698C250.511 50.8698 249.256 50.7141 248.07 50.4052C246.884 50.0963 245.833 49.6054 244.913 48.9326C243.993 48.2597 243.272 47.3737 242.75 46.2746C242.226 45.1755 241.965 43.8226 241.965 42.2231V27.1661H249.014Z" fill="black"/><path d="M273.081 27.1661V49.5911H266.032V27.1661H273.081ZM270.581 27.1661H275.484C277.685 27.1661 279.474 27.4966 280.852 28.1599C282.229 28.8232 283.245 29.7283 283.896 30.8825C284.548 32.0366 284.873 33.3608 284.873 34.855C284.873 36.3492 284.548 37.6471 283.896 38.8108C283.245 39.9746 282.229 40.8893 280.852 41.5502C279.474 42.2135 277.685 42.5439 275.484 42.5439H270.581V37.2592H274.842C275.441 37.2592 275.932 37.1801 276.315 37.0197C276.698 36.8593 276.993 36.6198 277.196 36.2989C277.4 35.9781 277.501 35.6045 277.501 35.1783C277.501 34.7305 277.4 34.3498 277.196 34.0409C276.993 33.732 276.701 33.4973 276.315 33.3369C275.929 33.1765 275.438 33.0974 274.842 33.0974H270.581V27.1709V27.1661ZM279.81 39.9794L286.219 49.5911H278.047L272.6 39.9794H279.81Z" fill="black"/><path d="M304.325 49.5911H296.794L300.96 26.0455L310.893 38.1547L320.826 26.0455L324.992 49.5911H317.461L316.306 40.4295L310.891 47.5102L305.475 40.4295L304.32 49.5911H304.325Z" fill="black"/><path d="M335.408 27.1661V49.5911H328.199V27.1661H335.408Z" fill="black"/><path d="M361.205 27.1661V50.7117L346.625 39.4358V49.5911H339.897V26.0455L354.477 37.3214V27.1661H361.205Z" fill="black"/><path d="M373.028 27.1661V49.5911H365.689V27.1661H373.028ZM370.561 49.5911V43.5041H374.183C374.803 43.5041 375.433 43.4514 376.073 43.3437C376.715 43.2359 377.302 43.0132 377.836 42.6708C378.37 42.3308 378.801 41.816 379.134 41.1335C379.465 40.4511 379.63 39.5316 379.63 38.3774C379.63 37.2232 379.465 36.3061 379.134 35.6213C378.803 34.9388 378.37 34.4264 377.836 34.084C377.302 33.7415 376.715 33.5189 376.073 33.4111C375.431 33.3033 374.801 33.2507 374.183 33.2507H370.561V27.1637H374.504C377.11 27.1637 379.347 27.6115 381.218 28.5095C383.086 29.4074 384.519 30.6885 385.513 32.3527C386.507 34.0169 387.002 36.0259 387.002 38.375C387.002 40.724 386.507 42.7043 385.513 44.3805C384.519 46.0567 383.089 47.345 381.218 48.2405C379.347 49.1385 377.11 49.5863 374.504 49.5863H370.561V49.5911Z" fill="black"/><path d="M36.2475 29.0291C36.1158 29.0291 35.9792 29.0124 35.8451 28.974C32.6331 28.0833 30.8318 25.66 31.0282 22.492C31.0809 21.6659 31.7923 21.0337 32.6187 21.0888C33.445 21.1415 34.075 21.8527 34.0223 22.6788C33.9145 24.4244 34.796 25.569 36.6451 26.0838C37.4427 26.3065 37.9122 27.1326 37.6895 27.93C37.505 28.5933 36.9014 29.0291 36.2451 29.0291H36.2475Z" fill="black"/><path d="M21.7513 13.8357C21.198 13.8357 20.6663 13.7639 20.1705 13.6154C19.3465 13.3712 18.877 12.5043 19.1213 11.6806C19.3657 10.8569 20.2328 10.3876 21.0567 10.6318C22.0052 10.912 23.4472 10.5456 24.7263 9.69553C25.8425 8.95562 26.4796 8.084 26.5323 7.60509C26.6281 6.75024 27.397 6.13723 28.2521 6.23062C29.1072 6.3264 29.7228 7.09505 29.627 7.94991C29.4593 9.45847 28.2712 11.082 26.4485 12.2912C24.9275 13.3017 23.2628 13.8381 21.7537 13.8381L21.7513 13.8357Z" fill="black"/><path d="M53.9365 21.2205C53.9916 20.8206 54.0179 20.4135 54.0179 19.9993C54.0179 15.6508 50.9352 12.023 46.8322 11.1825C45.9914 7.08307 42.3626 3.99889 38.0128 3.99889C37.5218 3.99889 37.0403 4.03721 36.5732 4.11383C34.9684 1.63787 32.1827 0 29.0114 0C25.8401 0 23.052 1.63787 21.4472 4.11383C20.9777 4.0396 20.4963 3.99889 20.0076 3.99889C16.0387 3.99889 12.6709 6.56585 11.4733 10.1289C7.2313 10.8569 4.00248 14.5517 4.00248 19.0007C4.00248 19.4916 4.04081 19.9729 4.11746 20.4399C1.63836 22.0466 0 24.8315 0 28.0018C0 32.9729 4.03123 37.0029 9.00139 37.0029H28.5228L40.6979 52L40.5709 37.0029L49.0166 36.9479C53.5676 36.9479 57.0192 32.6353 57.0192 28.0018C57.0192 25.2984 55.824 22.8703 53.9365 21.2229V21.2205ZM52.37 32.1779C51.8383 32.7933 50.6981 33.8254 49.0406 33.835L49.0166 31.4883C49.0094 30.6646 48.3388 30.0037 47.5148 30.0037H47.5004C46.6717 30.0133 46.0058 30.6909 46.0154 31.5194L46.0393 33.8565L40.5518 33.89L37.4308 33.9092L37.4571 37.0293L37.5098 43.1354L30.9396 35.0442L30.0054 33.8924H18.6759V32.0031C18.6759 28.6627 16.5153 26.5029 13.1739 26.5029C12.3452 26.5029 11.6721 27.1733 11.6721 28.0018C11.6721 28.8304 12.3428 29.5032 13.1739 29.5032C15.4159 29.5032 15.6746 30.9304 15.6746 32.0031V33.8924H9.00139C8.19898 33.8924 7.43489 33.732 6.73787 33.4399C6.73787 33.4279 6.73548 33.4111 6.73308 33.3992C6.66122 32.9394 7.14986 32.0199 7.52352 31.893C8.24689 31.6511 8.87444 31.177 8.87444 30.3988C8.87444 29.5727 8.20377 28.8998 7.37262 28.8998C6.54146 28.8998 5.68635 29.3643 4.96777 30.2048C4.68992 30.5305 4.41447 30.94 4.1965 31.3997C3.51385 30.4371 3.11384 29.2662 3.11384 28.0018C3.11384 26.2155 3.91386 24.5513 5.28395 23.4354C5.79893 24.3693 6.55344 25.3032 7.53789 26.1101C7.92832 26.431 9.07086 26.5938 9.64332 25.8396C10.0338 25.3271 10.0026 24.398 9.37026 23.7348C8.98702 23.3325 7.13069 21.6204 7.11393 19.0007C7.10674 17.7939 7.48759 16.884 7.64088 16.5559C8.61336 14.4535 10.5535 13.6346 11.0613 13.4382C11.0829 14.5493 11.2913 15.8064 11.8685 17.0133C12.223 17.7628 13.1212 18.0788 13.8686 17.722C14.6183 17.3653 14.9345 16.4697 14.5776 15.7226C13.8446 14.1829 14.041 12.3918 14.259 11.6088V11.5968L14.4219 11.1203C15.2291 8.72094 17.4734 7.10941 20.0052 7.10941C20.3238 7.10941 20.64 7.13336 20.9514 7.18364L22.9562 7.50691L24.058 5.80438C25.1502 4.11623 27.0018 3.11052 29.009 3.11052C31.0162 3.11052 32.8654 4.11862 33.9576 5.80438C33.9576 5.80438 33.9648 5.81636 33.9672 5.81875C34.7457 7.13096 35.2391 8.5653 35.2391 11.0221C35.2391 11.8506 35.9098 12.5235 36.7409 12.5235C37.5721 12.5235 38.2404 11.853 38.2404 11.0221C38.2404 9.58059 38.0056 8.24443 37.6918 7.11899C37.7972 7.11181 37.905 7.10941 38.0128 7.10941C40.7985 7.10941 43.2249 9.08491 43.783 11.8051L44.195 13.8165L46.207 14.2284C48.9304 14.7863 50.9065 17.212 50.9041 19.9969C50.9041 23.0906 49.7687 24.228 48.0537 26.0048C47.4789 26.601 47.4956 27.5517 48.0921 28.1264C48.6885 28.701 49.637 28.6843 50.2143 28.088C51.352 26.9123 52.1784 25.6193 52.7461 24.489C53.4958 25.4971 53.9078 26.7255 53.9078 27.9971C53.9078 29.52 53.3473 31.0429 52.37 32.1731V32.1779Z" fill="black"/><path d="M37.014 19.5012C33.9792 19.5012 31.5121 17.0348 31.5121 14.0009C31.5121 13.1724 32.1828 12.4995 33.0115 12.4995C33.8403 12.4995 34.511 13.1724 34.511 14.0009C34.511 15.3802 35.6319 16.5008 37.0116 16.5008C38.3913 16.5008 39.5123 15.3802 39.5123 14.0009C39.5123 13.1724 40.1829 12.4995 41.0117 12.4995C41.8405 12.4995 42.5111 13.1724 42.5111 14.0009C42.5111 17.0348 40.044 19.5012 37.0092 19.5012H37.014Z" fill="black"/><path d="M14.8602 23.9287C14.5464 23.9287 14.2326 23.9024 13.9165 23.8497C12.453 23.6007 11.1739 22.7985 10.314 21.5869C9.81578 20.8853 9.98106 19.9155 10.6829 19.4174C11.3847 18.9193 12.3548 19.0846 12.853 19.7862C13.2314 20.3177 13.7943 20.6721 14.4362 20.7823C15.0806 20.8924 15.7273 20.744 16.2614 20.3656C16.7932 19.9873 17.1477 19.4246 17.2579 18.7828C17.368 18.1411 17.2195 17.4922 16.8411 16.9582C16.3429 16.2566 16.5081 15.2868 17.21 14.7887C17.9118 14.2907 18.8818 14.4559 19.3801 15.1575C20.24 16.3691 20.5753 17.8394 20.3262 19.3049C20.0771 20.7679 19.2747 22.0466 18.0627 22.9063C17.1118 23.5815 16.0003 23.9311 14.8578 23.9311L14.8602 23.9287Z" fill="black"/><path d="M25.5143 31.2081C25.0975 31.2081 24.6831 31.0357 24.3861 30.6981C21.4831 27.396 21.4759 23.6797 24.367 20.9978C26.1347 19.3575 24.7694 17.4706 24.4771 17.109C23.9478 16.4721 24.0388 15.531 24.676 15.0018C25.3131 14.4726 26.264 14.5636 26.7934 15.2006C28.0341 16.6924 29.5503 20.2842 26.4101 23.1984C24.3071 25.1523 25.3754 27.2787 26.6425 28.7202C27.1886 29.3428 27.1287 30.291 26.5059 30.837C26.2209 31.0884 25.8688 31.2105 25.5167 31.2105L25.5143 31.2081Z" fill="black"/><path d="M40.0871 32.4629C39.5362 32.4629 39.0045 32.1707 38.7218 31.6559C38.3074 30.9016 38.5829 29.9558 39.3374 29.5439C41.3063 28.464 41.2824 27.2475 41.0644 25.0134C40.8728 23.0619 40.5853 20.1118 44.013 18.7206C44.8106 18.3973 45.7184 18.7804 46.0417 19.5778C46.3651 20.3728 45.9819 21.2827 45.1866 21.606C44.0201 22.0801 43.9555 22.5806 44.1639 24.7141C44.377 26.8812 44.698 30.1569 40.8368 32.2761C40.5997 32.4078 40.3434 32.4677 40.0895 32.4677L40.0871 32.4629Z" fill="black"/></g><defs><clipPath id="clip0_1975_1333"><rect width="387" height="52" fill="white"/></clipPath></defs></svg>